<?xml version="1.0" encoding="utf-8"?>
<!-- Generator: Adobe Illustrator 21.1.0, SVG Export Plug-In . SVG Version: 6.00 Build 0)  -->
<svg version="1.1" id="圖層_1" xmlns="http://www.w3.org/2000/svg" xmlns:xlink="http://www.w3.org/1999/xlink" x="0px" y="0px"
	 viewBox="0 0 289.2 51" style="enable-background:new 0 0 289.2 51;" xml:space="preserve">
<style type="text/css">
	.st0{fill:#FFFFFF;}
</style>
<g>
	<g>
		<path class="st0" d="M26,23.7H13.7v1.4c1.9,0,2.1,0.4,2.1,0.6v15.4c0,0.5-1,1-2.3,1h0.2v1.5h12.8C36.3,41.8,36.9,26.2,26,23.7z
			 M26,41.5c-3.7,0.5-5.5-0.2-5.5-1V25.3C31.4,23.7,33.7,37.9,26,41.5z"/>
		<path class="st0" d="M49.2,23.8H35.1v-0.1c0.1,2,2.7,0.8,2.7,2.5v14.7c0,1.3-2.7,0.3-2.8,2.2h14c1.5,0,2.3-0.7,3-5v0.2
			c-1.7-0.4-1.4,3.2-3.5,3h-4.4c-0.8,0-1.6-0.2-1.6-0.9v-6v0.2c7.5-1.2,4.7,4.3,6.3,2.4v0.3V30c-1.6-1.9,1.2,3.6-6.3,2.4v-0.1v-6.9
			h5.7h-0.2c2.1-0.2,2.1,3.6,3.9,3.2v0.2c-0.7-4.3-1.5-5-3-5"/>
		<path class="st0" d="M59.1,16.8C56.4,18,54,18,53,16.6c-1.2-1.8,0.5-5.1,3.9-7.6c3.4-2.4,7.2-3,8.5-1.2c0.7,1.1,0.4,2.7-0.7,4.4"
			/>
		<path class="st0" d="M72.3,14c1.7,2.7,0.1,6.8-3.6,9.2c-3.7,2.4-8.1,2.1-9.9-0.6c-1.7-2.7-0.1-6.8,3.6-9.2
			C66.1,11,70.5,11.3,72.3,14z"/>
		<path class="st0" d="M69.1,22.8c0.8,0.3,1.5,0.9,2.1,1.5c2.9,3.2,1.6,9-2.7,12.8c-4.3,3.9-10.2,4.4-13,1.1
			c-2.9-3.2-1.7-9,2.7-12.8c0.7-0.6,1.4-1.1,2.1-1.5"/>
		<path class="st0" d="M89.5,40.6l0.2,0.5l-6.8-17.6c-2-1.1-2.6,2-3.4,3.4l-5.9,14.2l0.2-0.5c-0.7,1.1-1.1,2.3-2.5,2.3h6.8h0.3
			c-1-0.2-2.2-1.5-1.9-2.3l1-2.2h6.4l0.9,2.1l-0.1-0.3c0.5,1.5-0.6,2.5-1.5,2.5h8h0.3C90.5,42.6,89.9,41.4,89.5,40.6z M83.2,36.5
			l-0.1-0.3h-4.9l2.7-7.1l2.3,7.1h0.1V36.5z"/>
	</g>
	<g>
		<path class="st0" d="M100.3,23.3l0.6,0.5h2.1l0.3-0.5c0.2,0.2,0.4,0.3,0.5,0.4c0,0.1,0.1,0.1,0.1,0.1c0,0.1-0.1,0.2-0.4,0.3V28
			c0,0.5,0,0.8,0,1c0,0.2,0,0.4,0,0.5c0,0.1,0,0.2-0.1,0.2c-0.1,0-0.2,0.1-0.2,0.1c-0.1,0-0.2,0-0.2-0.1v-0.3h-1.6
			c0.2,0.1,0.4,0.2,0.5,0.3c0,0,0.1,0.1,0.1,0.1c0,0,0,0.1-0.1,0.1c-0.1,0-0.2,0.1-0.3,0.1c-0.1,0.2-0.2,0.5-0.3,0.7
			c-0.1,0.2-0.2,0.5-0.4,0.7c-0.1,0.2-0.2,0.4-0.4,0.6c-0.2,0.2-0.3,0.4-0.5,0.6l-0.1-0.1c0.2-0.3,0.4-0.6,0.5-0.8
			c0.1-0.3,0.3-0.5,0.4-0.8c0.1-0.3,0.2-0.5,0.3-0.8c0.1-0.2,0.1-0.4,0.1-0.6h-0.5v0.3c0,0.1-0.1,0.1-0.2,0.1c-0.1,0-0.1,0-0.2-0.1
			c-0.1-0.1-0.1-0.1-0.1-0.2c0-0.1,0-0.3,0-0.5c0-0.2,0.1-0.5,0.1-1V24C100.4,23.7,100.4,23.5,100.3,23.3z M100.9,25.4h2.3V24h-2.3
			V25.4z M100.9,27.2h2.3v-1.5h-2.3V27.2z M100.9,29.1h2.3v-1.6h-2.3V29.1z M102.7,30c0.3,0.3,0.6,0.5,0.8,0.8
			c0.2,0.2,0.3,0.5,0.4,0.7c0,0.2,0.1,0.3,0.1,0.5c0,0.2-0.1,0.3-0.2,0.3c0,0-0.1,0-0.1-0.1c0,0-0.1-0.2-0.1-0.3
			c-0.1-0.4-0.2-0.7-0.4-1c-0.1-0.3-0.3-0.5-0.5-0.8L102.7,30z M104,25.4c0.3,0.1,0.7,0.1,1.2,0.1h2.2V24c0-0.4,0-0.7,0-0.8
			c0.4,0,0.7,0.1,1,0.3c0.1,0,0.1,0.1,0.1,0.1c0,0.1,0,0.1-0.1,0.1c-0.1,0-0.3,0.1-0.4,0.1v1.8h0.7L109,25c0.2,0.2,0.5,0.3,0.7,0.5
			c0.1,0,0.1,0.1,0.1,0.1c0,0.1,0,0.2-0.1,0.2h-1.7v5.9c0,0.2-0.1,0.4-0.2,0.5c-0.1,0.1-0.2,0.2-0.4,0.3c-0.2,0.1-0.3,0.1-0.4,0.1
			l0-0.1c0-0.1-0.1-0.2-0.1-0.2c-0.1-0.1-0.2-0.2-0.5-0.2c-0.2-0.1-0.5-0.1-0.8-0.1v-0.2c0.5,0.1,1,0.2,1.4,0.2c0.2,0,0.4,0,0.4-0.1
			c0.1,0,0.1-0.1,0.1-0.3V26c-0.2,0.4-0.3,0.8-0.5,1.2c-0.2,0.5-0.5,0.9-0.8,1.3c-0.3,0.4-0.6,0.7-0.9,1.1c-0.3,0.3-0.7,0.7-1.2,1.1
			l-0.1-0.2c0.5-0.4,0.9-0.8,1.2-1.2c0.3-0.4,0.6-0.8,0.9-1.2c0.2-0.4,0.4-0.8,0.6-1.2c0.2-0.3,0.3-0.7,0.4-1h-1.7c-0.5,0-0.8,0-1,0
			L104,25.4z"/>
		<path class="st0" d="M110.9,23.2l0.6,0.4h7.5l0.3-0.4c0.3,0.2,0.4,0.3,0.5,0.4c0.1,0,0.1,0.1,0.1,0.1c0,0.1-0.1,0.2-0.4,0.3v6.8
			c0,0.5,0,0.8,0,1c0,0.2,0,0.3,0,0.5c0,0.1,0,0.2-0.1,0.2c-0.1,0-0.2,0.1-0.2,0.1c-0.1,0-0.2,0-0.2-0.1v-0.4h-7.7v0.4
			c0,0.1-0.1,0.1-0.2,0.1c-0.1,0-0.1,0-0.2-0.1c-0.1-0.1-0.1-0.1-0.1-0.2c0-0.1,0-0.3,0-0.5c0-0.2,0.1-0.5,0.1-1v-7
			C111,23.6,111,23.4,110.9,23.2z M111.4,31.8h7.7v-7.9h-7.7V31.8z M111.7,29.6c0.3,0.1,0.7,0.1,1.2,0.1h3.6v-0.2
			c0-0.2,0-0.4-0.1-0.5c0.6,0.1,0.9,0.2,0.9,0.3c0,0.1-0.1,0.2-0.4,0.2v0.2h0.7l0.4-0.4c0.2,0.2,0.4,0.3,0.6,0.5
			c0.1,0,0.1,0.1,0.1,0.1c0,0.1,0,0.2-0.1,0.2H117v0.9c0,0.1,0,0.2-0.1,0.3c-0.1,0.1-0.2,0.2-0.3,0.3c-0.1,0.1-0.3,0.1-0.4,0.2
			c0-0.2,0-0.3-0.1-0.4c-0.1-0.1-0.1-0.1-0.2-0.1c-0.2-0.1-0.4-0.2-0.7-0.2v-0.2c0.4,0.1,0.7,0.2,1,0.2c0.2,0,0.3,0,0.4-0.1
			c0.1,0,0.1-0.1,0.1-0.2V30h-3.6c-0.5,0-0.8,0-1,0L111.7,29.6z M111.9,24.7c0.3,0.1,0.7,0.1,1.2,0.1h1.8c0-0.3,0-0.6,0-0.8
			c0.3,0.1,0.6,0.1,0.8,0.2c0.1,0,0.1,0.1,0.1,0.1c0,0,0,0.1-0.1,0.1c-0.1,0-0.2,0.1-0.3,0.1v0.3h1.9l0.4-0.4
			c0.2,0.2,0.4,0.3,0.6,0.5c0,0,0.1,0.1,0.1,0.1c0,0.1,0,0.2-0.1,0.2h-2.9v0.6h1.7l0.3-0.3c0.4,0.2,0.5,0.4,0.5,0.4
			c0,0.1-0.1,0.2-0.3,0.3v1.7c0,0.1-0.1,0.2-0.3,0.2c-0.1,0-0.2,0-0.2-0.1v-0.1h-1.8v0.6c0.6,0,1.2,0,1.7-0.1
			c-0.1-0.1-0.3-0.2-0.4-0.3l0.1-0.1c0.3,0.1,0.6,0.2,0.8,0.3c0.2,0.1,0.3,0.2,0.4,0.3c0.1,0.1,0.1,0.1,0.1,0.2
			c0,0.2-0.1,0.3-0.2,0.3c0,0-0.1,0-0.1,0c0,0-0.1-0.1-0.1-0.2c-0.1-0.1-0.2-0.2-0.3-0.3c-0.6,0.1-1.3,0.1-2,0.2
			c-0.7,0.1-1.3,0.1-1.9,0.2c-0.3,0-0.6,0.1-0.8,0.1c-0.1,0.2-0.1,0.4-0.2,0.4c-0.1,0-0.2-0.3-0.3-0.8c0.2,0,0.6,0,1.1,0
			c0.5,0,1.1,0,1.7-0.1v-0.6h-1.7v0.2c0,0.1,0,0.1-0.1,0.1c-0.1,0-0.2,0-0.3,0c-0.1,0-0.1,0-0.1-0.1v-2.8l0.6,0.3h1.6v-0.6h-1.8
			c-0.5,0-0.8,0-1,0L111.9,24.7z M113.2,26.7h1.7V26h-1.7V26.7z M113.2,27.6h1.7v-0.6h-1.7V27.6z M113.5,30.1
			c0.3,0.1,0.5,0.2,0.7,0.3c0.1,0.1,0.3,0.2,0.3,0.3c0,0.1,0.1,0.1,0.1,0.2c0,0.2-0.1,0.3-0.2,0.3c0,0-0.1,0-0.1,0
			c0,0-0.1-0.1-0.1-0.1c-0.1-0.2-0.2-0.3-0.3-0.4c-0.1-0.1-0.3-0.2-0.5-0.4L113.5,30.1z M115.4,26v0.6h1.8V26H115.4z M115.4,26.9
			v0.6h1.8v-0.6H115.4z"/>
		<path class="st0" d="M121,25.8c0.4,0.2,0.8,0.4,1,0.5c0.2,0.2,0.4,0.3,0.5,0.4c0.1,0.1,0.1,0.2,0.1,0.3c0,0.2-0.1,0.3-0.2,0.3
			c-0.1,0-0.1,0-0.2-0.1c-0.1,0-0.1-0.1-0.2-0.2c-0.1-0.3-0.3-0.5-0.5-0.6c-0.2-0.2-0.4-0.4-0.7-0.5L121,25.8z M123.1,28.1l0.1,0.2
			c-0.2,0.5-0.4,1.1-0.7,1.6c-0.3,0.6-0.6,1.2-0.9,1.7c0,0.3-0.1,0.5-0.1,0.5c-0.1,0-0.2-0.2-0.6-0.7c0.4-0.4,0.8-0.9,1.2-1.6
			C122.5,29.2,122.8,28.6,123.1,28.1z M121.7,23.3c0.4,0.2,0.7,0.4,1,0.5c0.2,0.1,0.4,0.3,0.5,0.4c0.1,0.1,0.1,0.2,0.1,0.3
			c0,0.2-0.1,0.3-0.2,0.3c-0.1,0-0.1,0-0.2,0c-0.1,0-0.1-0.1-0.2-0.2c-0.1-0.3-0.3-0.5-0.4-0.6c-0.2-0.2-0.4-0.4-0.7-0.5L121.7,23.3
			z M124,25.1c0.3,0.1,0.7,0.1,1.2,0.1h1.3V24c0-0.4,0-0.6,0-0.8c0.4,0,0.7,0.1,1,0.2c0.1,0,0.1,0.1,0.1,0.2c0,0.1,0,0.1-0.1,0.1
			c-0.1,0.1-0.3,0.1-0.4,0.1v1.5h1.6l0.5-0.6c0.3,0.2,0.5,0.4,0.7,0.6c0.1,0,0.1,0.1,0.1,0.1c0,0.1-0.1,0.2-0.2,0.2H127v2.3h2.3
			l0.5-0.6c0.2,0.2,0.5,0.4,0.7,0.6c0.1,0,0.1,0.1,0.1,0.1c0,0.1-0.1,0.2-0.2,0.2h-3.9c-0.4,0.6-0.8,1.2-1.2,1.8
			c-0.4,0.5-0.7,1-1.1,1.5c0.5,0,1,0,1.4-0.1c0.5,0,1.1-0.1,1.7-0.2c0.5-0.1,1.1-0.2,1.8-0.3c-0.1-0.1-0.1-0.3-0.2-0.4
			c-0.2-0.3-0.5-0.7-0.9-1.2l0.1-0.1c0.4,0.3,0.7,0.6,1,0.9c0.3,0.3,0.5,0.5,0.6,0.7c0.2,0.2,0.3,0.3,0.4,0.5
			c0.1,0.1,0.1,0.3,0.1,0.4c0,0.1,0.1,0.2,0.1,0.3c0,0.2-0.1,0.3-0.2,0.3c-0.1,0-0.1,0-0.2-0.1c-0.1-0.1-0.2-0.3-0.4-0.7
			c-0.1-0.2-0.2-0.3-0.2-0.5c-0.6,0.1-1.2,0.2-1.6,0.3c-0.6,0.1-1.1,0.2-1.6,0.3c-0.5,0.1-1,0.2-1.5,0.2c-0.1,0.3-0.1,0.4-0.2,0.4
			c-0.1,0-0.3-0.3-0.5-0.9c0,0,0.1,0,0.1,0c0.5-0.6,0.9-1.2,1.2-1.7c0.3-0.5,0.6-1,0.8-1.6h-1.4c-0.5,0-0.8,0-1,0l-0.2-0.4
			c0.3,0.1,0.7,0.1,1.2,0.1h2.1v-2.3h-1.3c-0.5,0-0.8,0-1,0L124,25.1z"/>
		<path class="st0" d="M135.6,23.1c0.3,0,0.6,0.1,0.9,0.1c0.1,0,0.1,0,0.1,0.1c0,0.1-0.1,0.1-0.2,0.2c-0.1,0-0.2,0.1-0.3,0.1
			c0,0.4,0,0.8-0.1,1.2c0.1,0.6,0.2,1.2,0.3,1.7c0.2,0.6,0.4,1.2,0.7,1.8c0.3,0.6,0.6,1.1,1,1.5c0.4,0.4,0.8,0.8,1.4,1.2
			c0.4,0.3,0.9,0.5,1.5,0.6v0.2c-0.4,0-0.7,0.2-0.9,0.4c-0.8-0.5-1.4-1-1.9-1.5c-0.5-0.6-0.9-1.1-1.2-1.8c-0.3-0.7-0.6-1.4-0.8-2
			c-0.1-0.3-0.1-0.7-0.2-1c0,0.1,0,0.1,0,0.1c-0.1,0.7-0.3,1.3-0.5,2c-0.2,0.6-0.5,1.1-0.8,1.6c-0.3,0.5-0.7,1-1.2,1.4
			c-0.5,0.5-1.3,1-2.2,1.5l-0.1-0.2c0.7-0.4,1.2-0.7,1.6-1.1c0.4-0.3,0.8-0.7,1.1-1.2c0.3-0.4,0.6-0.9,0.9-1.5
			c0.3-0.5,0.5-1.2,0.6-1.9c0.1-0.7,0.2-1.5,0.2-2.2C135.7,23.8,135.7,23.4,135.6,23.1z"/>
		<path class="st0" d="M142.6,24.8l0.6,0.4h3v-1.3c0-0.4,0-0.6,0-0.8c0.4,0,0.7,0.1,1,0.2c0.1,0,0.1,0.1,0.1,0.1
			c0,0.1,0,0.1-0.1,0.1c-0.1,0.1-0.3,0.1-0.4,0.1v1.6h3l0.3-0.4c0.3,0.1,0.4,0.3,0.5,0.4c0.1,0.1,0.1,0.1,0.1,0.1
			c0,0.1-0.1,0.2-0.4,0.3v2.8c0.1,0.1,0.2,0.1,0.3,0.2c0,0,0,0,0,0.1c0,0.1,0,0.2-0.1,0.2h-3.8v2.8c0,0.2,0,0.3,0,0.3
			c0,0.1,0,0.2,0,0.3c0,0.2-0.1,0.3-0.3,0.3c-0.2,0-0.3,0-0.3-0.2c0-0.2,0-0.3,0-0.6c0-0.2,0-0.5,0-0.6v-2.4h-3.1v0.3
			c0,0.1-0.1,0.1-0.2,0.1c-0.1,0-0.1,0-0.2-0.1c-0.1-0.1-0.1-0.1-0.1-0.2c0-0.1,0-0.3,0-0.5c0-0.2,0-0.5,0-1v-2.1
			C142.6,25.2,142.6,25,142.6,24.8z M143.1,28.6h3.1v-3.1h-3.1V28.6z M146.6,25.5v3.1h3.1v-3.1H146.6z"/>
		<path class="st0" d="M152.3,25.6c0.3,0.1,0.7,0.1,1.2,0.1h6.4l0.4-0.4c0.2,0.2,0.4,0.3,0.6,0.5c0,0,0.1,0.1,0.1,0.1
			c0,0.1,0,0.2-0.1,0.2h-3.9v3.2h3.5l0.4-0.5c0.2,0.2,0.5,0.3,0.7,0.5c0.1,0,0.1,0.1,0.1,0.1c0,0.1,0,0.2-0.1,0.2h-4.6v1.2h2.6
			l0.4-0.5c0.2,0.2,0.5,0.3,0.7,0.5c0.1,0,0.1,0.1,0.1,0.1c0,0.1,0,0.2-0.1,0.2h-3.8v0.8c0,0.2,0,0.3,0,0.3c0,0.1,0,0.2,0,0.3
			c0,0.2-0.1,0.3-0.3,0.3c-0.2,0-0.2,0-0.2-0.1c0-0.2,0-0.3,0-0.6c0-0.2,0-0.4,0-0.6v-0.4h-2.2c-0.5,0-0.8,0-1,0l-0.2-0.5
			c0.3,0.1,0.7,0.1,1.2,0.1h2.2v-1.2h-3.2c-0.5,0-0.8,0-1,0l-0.2-0.5c0.3,0.1,0.7,0.1,1.2,0.1h3.2V26h-3c-0.5,0-0.8,0-1,0
			L152.3,25.6z M152.1,23.9c0.3,0.1,0.7,0.1,1.2,0.1h1.4l-0.2-1c0.3,0,0.6,0.1,0.8,0.1c0.1,0,0.1,0,0.1,0.1c0,0,0,0.1-0.1,0.1
			c-0.1,0.1-0.2,0.1-0.2,0.1l0.1,0.6h0.5l0.4-0.4c0.2,0.2,0.4,0.3,0.6,0.4c0,0,0.1,0.1,0.1,0.1c0,0.1,0,0.2-0.1,0.2h-1.4l0.1,0.9
			c0,0.1,0,0.1-0.1,0.1c-0.1,0.1-0.1,0.1-0.2,0.1c-0.1,0-0.1,0-0.1-0.1l-0.1-1h-1.5c-0.5,0-0.8,0-1,0L152.1,23.9z M152.4,27.4
			c0.3,0.1,0.7,0.1,1.2,0.1h0.2V27c0-0.3,0-0.6,0-0.7c0.3,0.1,0.6,0.1,0.8,0.2c0.1,0,0.1,0.1,0.1,0.1c0,0,0,0.1-0.1,0.1
			c-0.1,0-0.2,0.1-0.3,0.1v0.7h0.6l0.4-0.4c0.2,0.2,0.4,0.3,0.6,0.5c0,0,0.1,0.1,0.1,0.1c0,0.1,0,0.2-0.1,0.2h-1.6v0.1
			c0,0.2,0,0.3,0,0.3c0,0.1,0,0.2,0,0.3c0,0.2-0.1,0.3-0.3,0.3c-0.2,0-0.2,0-0.2-0.2c0-0.1,0-0.2,0-0.4c0-0.1,0-0.3,0-0.4v-0.2h-0.2
			c-0.5,0-0.8,0-1,0L152.4,27.4z M158.5,23c0.3,0,0.5,0.1,0.8,0.2c0,0,0.1,0,0.1,0.1c0,0.1-0.1,0.1-0.2,0.1c-0.1,0-0.2,0.1-0.3,0.1
			c0,0.2-0.1,0.4-0.1,0.6h1.6l0.5-0.5c0.2,0.2,0.5,0.4,0.7,0.5c0.1,0,0.1,0.1,0.1,0.1c0,0.1,0,0.2-0.1,0.2h-2.8
			c0,0.3-0.1,0.6-0.2,0.9c0,0.1-0.1,0.2-0.3,0.2c-0.1,0-0.2,0-0.2-0.1l0-0.1c0-0.1,0.1-0.2,0.1-0.3c0-0.2,0.1-0.3,0.1-0.5
			c-0.4,0-0.7,0-0.9,0l-0.2-0.4c0.3,0.1,0.6,0.1,1.1,0.1C158.5,23.6,158.5,23.3,158.5,23z M157.4,27.4c0.3,0.1,0.7,0.1,1.2,0.1h0V27
			c0-0.3,0-0.6,0-0.7c0.3,0.1,0.6,0.1,0.8,0.2c0.1,0,0.1,0.1,0.1,0.1c0,0,0,0.1-0.1,0.1c-0.1,0-0.2,0.1-0.3,0.1v0.7h0.6l0.4-0.4
			c0.2,0.2,0.4,0.3,0.6,0.5c0,0,0.1,0.1,0.1,0.1c0,0.1,0,0.2-0.1,0.2h-1.6v0.1c0,0.2,0,0.3,0,0.3c0,0.1,0,0.2,0,0.3
			c0,0.2-0.1,0.3-0.3,0.3c-0.2,0-0.3,0-0.3-0.2c0-0.1,0-0.2,0-0.4c0-0.1,0-0.3,0-0.4v-0.2h0c-0.5,0-0.8,0-1,0L157.4,27.4z"/>
		<path class="st0" d="M167.4,26.1c0.1,0.7,0.2,1.3,0.3,1.8h2.8l0.5-0.6c0.3,0.2,0.5,0.4,0.7,0.6c0.1,0,0.1,0.1,0.1,0.1
			c0,0.1-0.1,0.2-0.2,0.2h-3.9c0,0.1,0.1,0.2,0.1,0.2c0.2,0.6,0.5,1.1,0.9,1.6c0.3,0.4,0.7,0.8,1.1,1c0.3,0.3,0.6,0.4,0.9,0.6
			c0.2,0.1,0.3,0.1,0.3,0.1c0.1,0,0.1,0,0.2-0.2c0.2-0.4,0.4-0.9,0.6-1.5l0.2,0.1c-0.3,1-0.4,1.5-0.4,1.6c0,0.1,0,0.2,0.1,0.2
			c0.1,0.1,0.1,0.1,0.1,0.2c0,0.1-0.1,0.2-0.4,0.2c-0.2,0-0.4-0.1-0.6-0.2c-0.3-0.1-0.7-0.3-1-0.6c-0.4-0.3-0.8-0.6-1.1-1.1
			c-0.4-0.4-0.7-0.8-0.9-1.2c-0.2-0.4-0.4-0.8-0.5-1.2h-3.4v3.3c0.3,0,0.5-0.1,0.7-0.2c0.4-0.1,0.7-0.2,1.2-0.4
			c0.4-0.2,0.9-0.4,1.5-0.6l0,0.2c-0.5,0.3-0.8,0.5-1.2,0.7c-0.4,0.2-0.7,0.4-1.1,0.5c-0.3,0.1-0.6,0.3-1,0.4
			c-0.1,0.3-0.2,0.4-0.2,0.4c-0.1,0-0.2-0.3-0.5-0.9c0,0,0.1,0,0.1,0V24c0-0.3,0-0.5-0.1-0.7l0.6,0.4h6.2l0.3-0.3
			c0.4,0.2,0.5,0.3,0.5,0.4c0,0.1-0.1,0.2-0.3,0.3v1.6c0.1,0.1,0.2,0.1,0.2,0.2c0,0,0.1,0,0.1,0.1c0,0.1,0,0.2-0.1,0.2H167.4z
			 M163.9,24v1.8h6.3V24H163.9z M163.9,26.1v1.8h3.3c0,0,0,0,0-0.1c-0.2-0.5-0.3-1.1-0.3-1.8H163.9z"/>
		<path class="st0" d="M173.3,23.2l0.6,0.4h7.5l0.3-0.4c0.2,0.2,0.4,0.3,0.5,0.4c0.1,0,0.1,0.1,0.1,0.1c0,0.1-0.1,0.2-0.4,0.3v6.7
			c0,0.5,0,0.8,0,1c0,0.2,0,0.4,0,0.5c0,0.1,0,0.2-0.1,0.2c-0.1,0-0.2,0.1-0.2,0.1c-0.1,0-0.2,0-0.2-0.1V32h-7.6v0.4
			c0,0.1-0.1,0.1-0.2,0.1c-0.1,0-0.2,0-0.2-0.1c-0.1-0.1-0.1-0.1-0.1-0.2c0-0.1,0-0.3,0-0.5c0-0.2,0.1-0.5,0.1-1v-6.9
			C173.4,23.6,173.4,23.4,173.3,23.2z M173.9,31.7h7.6V24h-7.6V31.7z M174.1,25.4c0.3,0.1,0.7,0.1,1.2,0.1h2.8v0c0-0.6,0-1.1,0-1.3
			c0.6,0.1,0.9,0.3,0.9,0.4c0,0.1-0.2,0.2-0.5,0.3c0,0.3,0,0.5,0,0.7h1.4l0.4-0.5c0.2,0.2,0.5,0.3,0.7,0.5c0,0,0.1,0.1,0.1,0.1
			c0,0.1,0,0.2-0.1,0.2h-2.4c0,0.8,0.1,1.3,0.1,1.7c0.1,0.5,0.2,0.9,0.3,1.2c0,0.1,0,0.1,0.1,0.2c0.1-0.1,0.1-0.2,0.2-0.3
			c0.2-0.3,0.3-0.5,0.4-0.8c0.1-0.3,0.2-0.5,0.3-0.7c0-0.2,0.1-0.4,0.1-0.5c0.3,0.1,0.5,0.2,0.7,0.2c0.1,0,0.1,0.1,0.1,0.1
			c0,0.1,0,0.1-0.1,0.1c-0.1,0-0.2,0.1-0.3,0.1c-0.1,0.3-0.2,0.6-0.3,0.9c-0.2,0.3-0.3,0.6-0.5,1c-0.1,0.1-0.2,0.3-0.3,0.4
			c0.1,0.1,0.1,0.2,0.2,0.3c0.2,0.3,0.4,0.5,0.6,0.7c0.2,0.1,0.2,0.2,0.3,0.2c0.1,0,0.1,0,0.2-0.1c0.1-0.1,0.3-0.6,0.6-1.4l0.2,0.1
			c-0.2,0.9-0.3,1.4-0.3,1.5c0,0.1,0,0.3,0.1,0.3c0.1,0.1,0.2,0.2,0.2,0.3c0,0.1-0.1,0.2-0.3,0.2c-0.1,0-0.2-0.1-0.4-0.2
			c-0.2-0.1-0.4-0.3-0.7-0.6c-0.2-0.2-0.5-0.5-0.6-0.8c-0.1-0.1-0.1-0.2-0.2-0.2c0,0,0,0,0,0c-0.2,0.2-0.4,0.4-0.7,0.6
			c-0.2,0.2-0.5,0.4-0.7,0.5c-0.3,0.2-0.6,0.3-1,0.5l-0.2-0.2c0.4-0.2,0.8-0.4,1.1-0.7c0.3-0.2,0.6-0.4,0.8-0.6
			c0.2-0.2,0.3-0.4,0.5-0.6c0,0,0,0,0,0c-0.1-0.1-0.1-0.2-0.2-0.4c-0.1-0.4-0.2-0.8-0.3-1.4c-0.1-0.5-0.1-1.1-0.1-1.6h-2.8
			c-0.5,0-0.8,0-1,0L174.1,25.4z M177.9,29.4l0.1,0.2c-0.4,0.2-0.8,0.4-1.1,0.5c-0.3,0.1-0.7,0.2-1,0.3c-0.3,0.1-0.6,0.2-0.9,0.2
			c-0.1,0.2-0.1,0.4-0.2,0.4c-0.1,0-0.2-0.3-0.5-0.8c0.4-0.1,0.8-0.1,1.2-0.2c0.3-0.1,0.7-0.1,1.1-0.2
			C176.9,29.7,177.4,29.6,177.9,29.4z M174.8,26.5l0.6,0.3h1.4l0.3-0.3c0.4,0.2,0.5,0.4,0.5,0.4c0,0.1-0.1,0.2-0.3,0.3v1.2
			c0.1,0,0.1,0.1,0.1,0.1c0,0,0,0,0,0.1c0,0.1,0,0.1-0.1,0.1h-2.1V29c0,0.1,0,0.1-0.1,0.1c-0.1,0-0.2,0-0.2,0c-0.1,0-0.1,0-0.1-0.1
			V26.5z M175.3,28.5h1.5v-1.4h-1.5V28.5z M179.2,24.2c0.2,0.1,0.4,0.2,0.5,0.3c0.1,0.1,0.2,0.2,0.3,0.2c0.1,0.1,0.1,0.1,0.1,0.2
			c0,0.2-0.1,0.3-0.2,0.3c0,0-0.1,0-0.1,0c0,0-0.1-0.1-0.1-0.1c-0.1-0.2-0.2-0.3-0.2-0.4c-0.1-0.1-0.2-0.2-0.4-0.3L179.2,24.2z"/>
		<path class="st0" d="M187.5,23c0.1,0.1,0.3,0.2,0.4,0.3c0.1,0.1,0.2,0.2,0.3,0.2c0.1,0.1,0.1,0.1,0.2,0.2c0,0.1,0.1,0.1,0.1,0.2
			c0,0.1,0,0.2-0.1,0.3c0,0,0,0,0,0.1h2.9l0.5-0.5c0.2,0.2,0.5,0.4,0.7,0.5c0.1,0,0.1,0.1,0.1,0.1c0,0.1,0,0.2-0.1,0.2h-2.4
			c0.2,0.1,0.3,0.1,0.5,0.2c0.1,0,0.1,0.1,0.1,0.1c0,0.1-0.1,0.1-0.2,0.1c-0.1,0-0.2,0-0.3,0c-0.1,0.2-0.2,0.4-0.3,0.7
			c-0.1,0.2-0.2,0.4-0.4,0.5c-0.1,0.1-0.2,0.2-0.3,0.3h2.6l0.3-0.3c0.2,0.2,0.4,0.3,0.6,0.5c0,0,0,0,0,0.1c0,0.1-0.1,0.1-0.2,0.1
			c-0.1,0-0.2,0.1-0.3,0.1c-0.1,0.1-0.2,0.3-0.3,0.4c-0.1,0.2-0.3,0.3-0.4,0.4l-0.2-0.1c0.1-0.2,0.2-0.3,0.3-0.5
			c0.1-0.2,0.1-0.3,0.2-0.4h-3.3v1.4h2.1l0.3-0.4c0.3,0.1,0.4,0.3,0.5,0.4c0,0.1,0.1,0.1,0.1,0.1c0,0.1-0.1,0.2-0.4,0.3v2.1
			c0,0.2-0.1,0.4-0.2,0.5c-0.1,0.1-0.2,0.2-0.3,0.3c-0.1,0.1-0.2,0.1-0.4,0.1c0-0.2,0-0.3-0.1-0.3c-0.1-0.1-0.2-0.2-0.4-0.2
			c-0.2-0.1-0.4-0.1-0.7-0.1v-0.2c0.4,0.1,0.9,0.2,1.2,0.2c0.1,0,0.2,0,0.2,0c0.1,0,0.1-0.1,0.1-0.3v-2.1h-2.2v3.3
			c0,0.2,0,0.3,0,0.3c0,0.1,0,0.2,0,0.3c0,0.2-0.1,0.3-0.3,0.3c-0.2,0-0.3-0.1-0.3-0.2c0-0.1,0-0.3,0-0.6c0-0.2,0-0.5,0-0.6v-2.9
			h-2.1v3c0,0.1-0.1,0.1-0.2,0.1c-0.1,0-0.1,0-0.2-0.1c-0.1-0.1-0.1-0.1-0.1-0.2c0-0.1,0-0.3,0-0.5c0-0.2,0.1-0.5,0.1-1v-1.4
			c0-0.3,0-0.5-0.1-0.7l0.6,0.4h2v-1.4h-3.4c0,0.1,0,0.2,0,0.3c0,0.2-0.1,0.4-0.2,0.5c-0.1,0.1-0.1,0.2-0.2,0.3
			c-0.1,0.1-0.1,0.1-0.2,0.2c-0.1,0-0.1,0-0.2,0c-0.2,0-0.2-0.1-0.2-0.2c0-0.1,0-0.1,0.1-0.2c0.2-0.2,0.4-0.4,0.5-0.5
			c0.1-0.2,0.2-0.3,0.2-0.5c0-0.2,0.1-0.4,0.1-0.7h0.1v0.5h2.2c0-0.1-0.1-0.1-0.1-0.3c-0.1-0.2-0.1-0.4-0.2-0.6
			c-0.1-0.2-0.2-0.4-0.3-0.6c-0.1-0.2-0.2-0.4-0.4-0.6h-0.9c-0.5,0-0.8,0-1,0l-0.2-0.4c0.3,0.1,0.7,0.1,1.2,0.1h3.1c0,0,0-0.1,0-0.1
			c0-0.1-0.1-0.2-0.1-0.3c-0.1-0.1-0.1-0.2-0.2-0.3c-0.1-0.1-0.2-0.2-0.3-0.3L187.5,23z M187,26.5h1.8c0.1-0.2,0.2-0.3,0.3-0.5
			c0.1-0.2,0.2-0.3,0.2-0.5c0.1-0.2,0.1-0.4,0.2-0.6c0-0.1,0.1-0.3,0.1-0.4H186c0.2,0.1,0.3,0.3,0.4,0.4c0.2,0.2,0.3,0.3,0.4,0.5
			c0.1,0.2,0.2,0.3,0.2,0.4c0,0.1,0.1,0.2,0.1,0.3C187.1,26.3,187.1,26.4,187,26.5z"/>
		<path class="st0" d="M194.1,23.1l0.6,0.4h2.3l0.3-0.3c0.4,0.2,0.5,0.4,0.5,0.4c0,0.1-0.1,0.2-0.3,0.3v2.8c0,0.1-0.1,0.2-0.3,0.2
			c-0.1,0-0.2,0-0.2-0.1v-0.2h-2.4v5.6c0,0.1-0.1,0.1-0.2,0.1c-0.1,0-0.1,0-0.2-0.1c-0.1-0.1-0.1-0.1-0.1-0.2c0-0.1,0-0.3,0-0.5
			c0-0.2,0.1-0.5,0.1-1v-7C194.2,23.6,194.2,23.3,194.1,23.1z M194.7,25h2.4v-1.2h-2.4V25z M194.7,26.5h2.4v-1.2h-2.4V26.5z
			 M199.2,23.2l0.6,0.3h2.5l0.3-0.4c0.2,0.2,0.4,0.3,0.5,0.4c0,0.1,0.1,0.1,0.1,0.1c0,0.1-0.1,0.2-0.4,0.3v7.6
			c0,0.2-0.1,0.4-0.2,0.5c-0.1,0.1-0.2,0.2-0.4,0.3c-0.1,0.1-0.3,0.1-0.4,0.1c0-0.2,0-0.3-0.1-0.3c-0.1-0.1-0.2-0.2-0.4-0.2
			c-0.2-0.1-0.4-0.1-0.7-0.1v-0.2c0.5,0.1,0.9,0.2,1.3,0.2c0.1,0,0.2,0,0.3-0.1c0,0,0.1-0.1,0.1-0.3v-4.7h-2.6v0
			c0,0.1,0,0.1-0.1,0.1c-0.1,0-0.2,0-0.2,0c-0.1,0-0.1,0-0.1-0.1V23.2z M199.7,25h2.6v-1.2h-2.6V25z M199.7,26.5h2.6v-1.2h-2.6V26.5
			z"/>
		<path class="st0" d="M204.1,23.7c0.3,0.1,0.7,0.1,1.2,0.1h1.4l-0.1-0.9c0.3,0,0.5,0.1,0.8,0.1c0.1,0,0.1,0.1,0.1,0.1
			c0,0,0,0.1-0.1,0.1c-0.1,0.1-0.2,0.1-0.2,0.1l0,0.4h0.6l0.4-0.4c0.2,0.1,0.4,0.3,0.6,0.4c0,0,0.1,0.1,0.1,0.1c0,0.1,0,0.2-0.1,0.2
			h-1.5l0.1,0.4c0,0.1,0,0.1-0.1,0.1c-0.1,0.1-0.2,0.1-0.2,0.1c0,0,0,0.1,0,0.1c0,0,0,0.1-0.1,0.1c-0.1,0-0.2,0.1-0.2,0.1v0.2h0.9
			l0.3-0.3c0.2,0.1,0.4,0.3,0.5,0.4c0,0,0.1,0,0.1,0.1c0,0.1,0,0.2-0.1,0.2h-1.7v0.7h1.3l0.3-0.3c0.2,0.1,0.4,0.3,0.5,0.4
			c0,0,0.1,0.1,0.1,0.1c0,0.1,0,0.2-0.1,0.2h-1.3v0.4c0,0.1,0.2,0.2,0.4,0.2c0.1,0,0.3,0,0.7,0c0.1,0,0.2,0.1,0.2,0.2
			c0,0.1-0.1,0.2-0.2,0.2c-0.1,0-0.4,0-0.7,0c-0.3,0-0.5,0-0.7-0.1c-0.1-0.1-0.2-0.2-0.2-0.3v-0.6h-0.9c0,0.1-0.1,0.2-0.1,0.3
			c0,0.1-0.1,0.3-0.2,0.4c-0.1,0.1-0.2,0.2-0.3,0.3c-0.1,0.1-0.3,0.2-0.4,0.2c-0.2,0.1-0.4,0.2-0.6,0.2l-0.1-0.2
			c0.2-0.1,0.4-0.2,0.5-0.2c0.1-0.1,0.2-0.2,0.3-0.2c0.1-0.1,0.2-0.2,0.2-0.2c0.1-0.1,0.1-0.2,0.2-0.3c0-0.1,0-0.1,0-0.2h-0.2
			c-0.5,0-0.8,0-1,0l-0.2-0.4c0.3,0.1,0.7,0.1,1.2,0.1h0.8v-0.7h-0.3c-0.5,0-0.8,0-1,0.1l-0.2-0.4c0.3,0.1,0.7,0.1,1.2,0.1h0.3
			c0-0.3,0-0.5,0-0.7c0.3,0.1,0.5,0.1,0.7,0.2c0,0,0,0,0,0l-0.1-0.6h-1.4c-0.5,0-0.8,0-1,0L204.1,23.7z M204.3,30.4
			c0.3,0.1,0.7,0.1,1.2,0.1h7l0.4-0.5c0.3,0.2,0.5,0.3,0.7,0.5c0.1,0,0.1,0.1,0.1,0.1c0,0.1,0,0.2-0.1,0.2h-5.7
			c-0.2,0.2-0.5,0.4-0.7,0.6c-0.2,0.2-0.4,0.3-0.6,0.5c0.2,0,0.3,0,0.5,0c0.8,0,1.6,0,2.3-0.1c0.8-0.1,1.5-0.1,2-0.2l0,0
			c-0.2-0.2-0.4-0.4-0.8-0.5l0.1-0.1c0.5,0.2,0.8,0.3,1.1,0.5c0.2,0.1,0.4,0.3,0.6,0.4c0.1,0.1,0.1,0.2,0.1,0.3
			c0,0.2-0.1,0.3-0.2,0.3c-0.1,0-0.1,0-0.2-0.1c-0.1,0-0.1-0.1-0.2-0.2c-0.1-0.1-0.2-0.3-0.3-0.4c-0.5,0.1-1.2,0.2-2.1,0.3
			c-1,0.1-2,0.2-3,0.2c-0.1,0.2-0.1,0.3-0.1,0.3c-0.1,0-0.2-0.3-0.5-0.8c0,0,0.1,0,0.1,0c0.3-0.2,0.5-0.4,0.7-0.6
			c0.2-0.2,0.3-0.3,0.5-0.5h-1.7c-0.5,0-0.8,0-1,0L204.3,30.4z M204.7,27.9c0.3,0.1,0.7,0.1,1.2,0.1h0.2v-0.1c0-0.4,0-0.6,0-0.8
			c0.3,0.1,0.5,0.1,0.7,0.2c0.1,0,0.1,0.1,0.1,0.1c0,0,0,0.1-0.1,0.1c-0.1,0-0.2,0.1-0.2,0.1V28h0.9l0.3-0.3
			c0.2,0.1,0.4,0.2,0.5,0.4c0,0,0.1,0.1,0.1,0.1c0,0.1,0,0.2-0.1,0.2h-1.7V29c0.7-0.1,1.3-0.2,1.8-0.3v0.2c-0.5,0.1-1.1,0.3-1.6,0.4
			c-0.6,0.1-1.2,0.2-1.8,0.3c-0.1,0.2-0.2,0.3-0.2,0.3c0,0,0,0-0.1-0.1c-0.1-0.2-0.2-0.5-0.3-0.7c0.6,0,1.2,0,1.8-0.1v-0.7h-0.2
			c-0.5,0-0.8,0-1,0L204.7,27.9z M206.2,29.5c0.3,0.1,0.7,0.1,1.2,0.1h3.2l0.5-0.5c0.2,0.2,0.4,0.3,0.6,0.5c0.1,0,0.1,0.1,0.1,0.1
			c0,0.1,0,0.2-0.1,0.2h-4.2c-0.5,0-0.8,0-1,0L206.2,29.5z M209.1,25.7c0.3,0.1,0.7,0.1,1.1,0.1h0.3v-0.1c0-0.4,0-0.7-0.1-0.9
			c0.3,0,0.5,0.1,0.8,0.1c0.1,0,0.1,0,0.1,0.1c0,0.1,0,0.1-0.1,0.2c-0.1,0.1-0.2,0.1-0.2,0.1c0,0.2,0,0.3,0,0.5h1.1l0.3-0.4
			c0.5,0.3,0.7,0.6,0.7,0.7c0,0.1-0.2,0.2-0.5,0.3c0,0.5,0,0.9,0.1,1.1c0,0.2,0.1,0.4,0.1,0.6c0,0.1,0.1,0.3,0.2,0.4c0,0,0,0,0.1,0
			c0,0,0.1,0,0.1-0.1c0.1-0.1,0.2-0.5,0.4-1.1l0.1,0.1c-0.2,0.7-0.2,1.1-0.2,1.1c0,0.1,0,0.2,0.1,0.3c0.1,0.1,0.1,0.2,0.1,0.4
			c0,0.2-0.1,0.3-0.2,0.3c-0.1,0-0.1,0-0.2-0.1c-0.1-0.1-0.3-0.2-0.4-0.4c-0.1-0.2-0.3-0.4-0.3-0.6c-0.1-0.2-0.2-0.5-0.2-0.8
			c0-0.3-0.1-0.8-0.1-1.5h-1.1c0,0.3-0.1,0.5-0.1,0.7c0,0.2-0.1,0.3-0.1,0.5c0.2,0.1,0.3,0.2,0.5,0.3c0.2,0.1,0.3,0.2,0.4,0.3
			c0.1,0.1,0.1,0.1,0.1,0.2c0,0.1,0.1,0.1,0.1,0.2c0,0.2-0.1,0.2-0.2,0.2c0,0-0.1,0-0.2,0c-0.1,0-0.2-0.2-0.4-0.4
			c-0.1-0.1-0.3-0.3-0.4-0.4c0,0,0,0.1-0.1,0.1c-0.1,0.3-0.3,0.5-0.4,0.7c-0.2,0.2-0.3,0.4-0.5,0.5c-0.2,0.2-0.5,0.3-0.8,0.5
			l-0.2-0.2c0.4-0.2,0.7-0.4,0.9-0.6c0.2-0.2,0.4-0.4,0.6-0.7c0.1-0.2,0.2-0.4,0.2-0.6c-0.2-0.2-0.5-0.3-0.8-0.5l0.1-0.1
			c0.3,0.1,0.6,0.2,0.8,0.4c0,0,0-0.1,0-0.1c0.1-0.3,0.1-0.6,0.1-0.8h-0.3c-0.5,0-0.9,0-1,0L209.1,25.7z M210.5,22.9
			c0.3,0,0.6,0.1,0.8,0.2c0,0,0.1,0.1,0.1,0.1c0,0.1-0.1,0.1-0.2,0.1c-0.1,0-0.2,0.1-0.3,0.1c0,0.1,0,0.3,0,0.4h1.6l0.4-0.5
			c0.2,0.2,0.5,0.3,0.7,0.5c0.1,0,0.1,0.1,0.1,0.1c0,0.1,0,0.2-0.1,0.2h-2.7c0,0.2,0,0.3-0.1,0.5c0,0.1-0.1,0.2-0.3,0.2
			c-0.1,0-0.2,0-0.2-0.1l0-0.1c0,0,0-0.1,0.1-0.2c0-0.1,0-0.1,0-0.2c-0.4,0-0.7,0-0.9,0l-0.2-0.4c0.3,0.1,0.7,0.1,1.1,0.1
			C210.5,23.4,210.5,23.2,210.5,22.9z"/>
		<path class="st0" d="M216.5,25.5c0.3,0.1,0.6,0.2,0.8,0.3c0,0,0.1,0.1,0.1,0.1c0,0.1-0.1,0.1-0.2,0.1c-0.1,0-0.2,0-0.3,0
			c-0.2,0.3-0.4,0.7-0.7,1c-0.1,0.2-0.3,0.3-0.4,0.4c0.3,0.1,0.4,0.2,0.4,0.3c0,0.1-0.1,0.1-0.3,0.2v3.6c0,0.2,0,0.4,0.1,0.5
			c0,0.1,0,0.2,0,0.2c0,0.2-0.1,0.3-0.4,0.3c-0.1,0-0.2,0-0.2-0.1v-4.6c-0.3,0.2-0.6,0.5-1,0.7l-0.2-0.1c0.3-0.3,0.6-0.6,0.9-0.8
			c0.2-0.2,0.4-0.5,0.6-0.7c0.2-0.3,0.3-0.5,0.5-0.8C216.3,26,216.4,25.8,216.5,25.5z M216.3,23.1c0.3,0.1,0.6,0.2,0.8,0.3
			c0,0,0.1,0.1,0.1,0.1c0,0.1-0.1,0.1-0.2,0.1c-0.1,0-0.2,0.1-0.3,0.1c-0.2,0.2-0.4,0.5-0.6,0.7c-0.2,0.2-0.4,0.4-0.7,0.6
			c-0.3,0.2-0.6,0.4-0.9,0.5l-0.2-0.1c0.3-0.2,0.6-0.4,0.8-0.6c0.2-0.2,0.3-0.3,0.5-0.6c0.2-0.2,0.3-0.4,0.4-0.6
			C216.2,23.5,216.3,23.3,216.3,23.1z M217.3,26.7c0.3,0,0.6,0.1,0.8,0.1c0.1,0,0.1,0,0.1,0.1c0,0.1,0,0.1-0.1,0.1
			c-0.1,0.1-0.2,0.1-0.3,0.1c0,0.6,0,1.1-0.1,1.5c0,0.4-0.1,0.7-0.1,0.9c-0.1,0.3-0.1,0.5-0.2,0.7c-0.1,0.2-0.2,0.4-0.3,0.5
			c-0.1,0.2-0.2,0.3-0.4,0.5l-0.2-0.2c0.2-0.2,0.3-0.4,0.3-0.6c0.1-0.2,0.2-0.4,0.2-0.7c0.1-0.3,0.1-0.6,0.1-0.9
			c0-0.4,0.1-0.8,0.1-1.2C217.4,27.2,217.4,26.9,217.3,26.7z M217.3,25.3c0.3,0.1,0.7,0.1,1.2,0.1h0.1v-1.5c0-0.3,0-0.6,0-0.7
			c0.3,0.1,0.6,0.1,0.8,0.2c0.1,0,0.1,0.1,0.1,0.1c0,0,0,0.1-0.1,0.1c-0.1,0.1-0.2,0.1-0.3,0.1v1.7h1.1l0.4-0.4
			c0.2,0.2,0.4,0.3,0.6,0.5c0,0,0.1,0.1,0.1,0.1c0,0.1-0.1,0.2-0.1,0.2h-2.2v5.9c0,0.1,0,0.3,0,0.3c0,0.1,0,0.2,0,0.3
			c0,0.2-0.1,0.3-0.3,0.3c-0.2,0-0.2-0.1-0.2-0.2c0-0.1,0-0.2,0-0.3c0-0.2,0-0.3,0-0.4v-5.9h-0.1c-0.5,0-0.8,0-1,0L217.3,25.3z
			 M219.8,23.5c0.2,0.1,0.4,0.2,0.6,0.3c0.1,0.1,0.2,0.2,0.3,0.2c0,0.1,0.1,0.1,0.1,0.2c0,0.2-0.1,0.3-0.2,0.3c0,0-0.1,0-0.1,0
			c0,0,0-0.1-0.1-0.1c-0.1-0.2-0.2-0.3-0.2-0.4c-0.1-0.1-0.2-0.2-0.4-0.3L219.8,23.5z M220,26.7c0.3,0.1,0.5,0.1,0.6,0.2
			c0.1,0,0.2,0.1,0.2,0.1c0,0.1-0.1,0.1-0.2,0.2c-0.1,0-0.2,0.1-0.2,0.1v2.8c0,0.1,0.1,0.2,0.4,0.2c0.1,0,0.3,0,0.5,0
			c0.2,0,0.3,0.1,0.3,0.2c0,0.1-0.1,0.2-0.2,0.2c-0.2,0-0.4,0.1-0.6,0.1c-0.3,0-0.6,0-0.7-0.1c-0.1-0.1-0.2-0.2-0.2-0.4V26.7z
			 M220.9,26.2c0.3,0.1,0.7,0.1,1.2,0.1h1l0.4-0.4c0.2,0.2,0.4,0.3,0.6,0.5c0.1,0,0.1,0.1,0.1,0.1c0,0.1,0,0.2-0.1,0.2H223v5.1
			c0,0.2-0.1,0.4-0.2,0.5c-0.1,0.1-0.2,0.2-0.4,0.3c-0.1,0.1-0.3,0.1-0.4,0.1l0-0.2c0-0.1-0.1-0.1-0.1-0.2c-0.1-0.1-0.2-0.2-0.4-0.2
			c-0.2-0.1-0.4-0.1-0.7-0.1v-0.2c0.4,0.1,0.8,0.2,1.1,0.2c0.2,0,0.3,0,0.4-0.1c0.1,0,0.1-0.1,0.1-0.3v-4.8h-0.5c-0.5,0-0.8,0-1,0
			L220.9,26.2z M221.2,23.7c0.3,0.1,0.7,0.1,1.2,0.1h0.6l0.4-0.4c0.2,0.1,0.4,0.3,0.6,0.4c0.1,0,0.1,0.1,0.1,0.1
			c0,0.1,0,0.1-0.1,0.1h-1.5c-0.5,0-0.8,0-1,0L221.2,23.7z"/>
		<path class="st0" d="M225.1,24.3c0.3,0.1,0.7,0.1,1.2,0.1h0.8v-0.5c0-0.4,0-0.6,0-0.8c0.3,0.1,0.5,0.1,0.7,0.2
			c0.1,0,0.1,0.1,0.1,0.1c0,0,0,0.1-0.1,0.1c-0.1,0.1-0.2,0.1-0.2,0.1v0.8h0.5l0.4-0.5c0.2,0.2,0.4,0.3,0.6,0.4
			c0.1-0.3,0.2-0.6,0.3-0.8c0.3,0,0.6,0.1,0.7,0.2c0.1,0,0.1,0.1,0.1,0.1c0,0-0.1,0.1-0.2,0.1c-0.1,0-0.2,0.1-0.3,0.1
			c-0.3,0.6-0.5,1-0.8,1.4c-0.2,0.3-0.4,0.5-0.7,0.8h0.5l0.4-0.5c0.2,0.2,0.5,0.3,0.7,0.5c0.1,0,0.1,0.1,0.1,0.1
			c0,0.1,0,0.2-0.1,0.2h-1.9c-0.1,0-0.1,0.1-0.2,0.1c-0.4,0.4-0.9,0.7-1.3,1c-0.1,0.1-0.3,0.2-0.4,0.2c0.2,0,0.5,0,0.8,0h1.5
			l0.3-0.3c0.2,0.2,0.4,0.3,0.6,0.5c0,0,0,0,0,0.1c0,0.1-0.1,0.1-0.2,0.1c-0.1,0-0.2,0.1-0.3,0.1c-0.1,0.2-0.3,0.4-0.5,0.5
			c-0.2,0.2-0.4,0.4-0.5,0.5v0.4c0,0,0.1,0,0.1,0c0.5-0.1,1-0.3,1.7-0.5l0,0.2c-0.6,0.2-1,0.4-1.5,0.5c-0.1,0-0.3,0.1-0.4,0.1v1.7
			c0,0.1,0,0.2-0.1,0.3c-0.1,0.1-0.2,0.2-0.3,0.3c-0.1,0.1-0.3,0.1-0.5,0.2c0-0.2,0-0.3-0.1-0.4c-0.1-0.1-0.1-0.1-0.2-0.1
			c-0.2-0.1-0.5-0.2-0.8-0.2v-0.2c0.4,0.1,0.8,0.2,1.1,0.2c0.2,0,0.3,0,0.3-0.1c0.1,0,0.1-0.1,0.1-0.2v-1.4
			c-0.2,0.1-0.3,0.1-0.4,0.1c-0.4,0.1-0.8,0.2-1.2,0.3c-0.1,0.2-0.1,0.4-0.2,0.4c-0.1,0-0.2-0.3-0.5-0.8c0.6-0.1,1.1-0.1,1.5-0.2
			c0.2,0,0.5-0.1,0.8-0.2v-0.2c0-0.3,0-0.6,0-0.8c0.2,0.1,0.4,0.1,0.5,0.2c0.1-0.1,0.2-0.3,0.3-0.4c0.1-0.2,0.2-0.4,0.3-0.5H227
			c-0.6,0-0.9,0-1,0l-0.1-0.2c-0.3,0.2-0.6,0.3-1,0.5l-0.1-0.2c0.6-0.3,1.1-0.6,1.5-0.8c0.4-0.2,0.7-0.5,1-0.8
			c0.1-0.1,0.2-0.1,0.2-0.2H226c-0.5,0-0.8,0-1,0l-0.2-0.4c0.3,0.1,0.7,0.1,1.2,0.1h1.1v-1.5h-0.8c-0.5,0-0.8,0-1,0L225.1,24.3z
			 M227.9,26.2c0.2-0.2,0.3-0.3,0.4-0.5c0.3-0.3,0.5-0.6,0.7-1h-1.4v1.5H227.9z M231.3,23.1c0.3,0.1,0.6,0.2,0.9,0.4
			c0.1,0.1,0.1,0.1,0.1,0.1c0,0.1-0.1,0.1-0.2,0.1c-0.1,0-0.3,0-0.3,0c-0.2,0.6-0.3,1.2-0.5,1.8h2.1l0.5-0.6
			c0.3,0.2,0.5,0.4,0.7,0.6c0.1,0,0.1,0.1,0.1,0.1c0,0.1-0.1,0.2-0.2,0.2h-0.7c-0.1,0.7-0.2,1.2-0.3,1.8c-0.1,0.6-0.3,1.1-0.6,1.5
			c-0.2,0.3-0.3,0.6-0.5,0.9c0.2,0.3,0.4,0.5,0.7,0.8c0.3,0.3,0.6,0.5,0.9,0.7c0.3,0.2,0.5,0.3,0.8,0.4V32c-0.4,0-0.6,0.1-0.7,0.3
			c-0.4-0.2-0.7-0.5-1-0.8c-0.3-0.3-0.6-0.7-0.9-1.1c0,0,0-0.1-0.1-0.1c0,0.1-0.1,0.1-0.1,0.1c-0.3,0.4-0.7,0.7-1.2,1.1
			c-0.5,0.4-1.1,0.7-1.8,1l-0.2-0.2c0.7-0.4,1.3-0.8,1.8-1.1c0.4-0.4,0.8-0.7,1.1-1.1c0-0.1,0.1-0.1,0.1-0.2
			c-0.2-0.3-0.3-0.6-0.4-0.9c-0.2-0.5-0.4-1.1-0.6-1.8l0.2-0.1c0.2,0.7,0.4,1.2,0.5,1.6c0.2,0.3,0.3,0.6,0.4,0.9
			c0.1-0.2,0.3-0.4,0.4-0.6c0.2-0.4,0.4-0.9,0.5-1.5c0.1-0.4,0.2-1,0.3-1.6H231c-0.2,0.5-0.4,0.9-0.5,1.3c-0.2,0.4-0.5,0.9-0.8,1.4
			l-0.2-0.1c0.3-0.5,0.5-1,0.7-1.4c0.2-0.4,0.3-0.8,0.5-1.3c0.2-0.5,0.3-0.9,0.4-1.3C231.1,24,231.2,23.6,231.3,23.1z"/>
		<path class="st0" d="M235.2,24c0.3,0.1,0.7,0.1,1.2,0.1h2.7c0.1-0.1,0.2-0.3,0.3-0.4c0.1-0.2,0.3-0.5,0.3-0.7
			c0.3,0.1,0.6,0.2,0.9,0.4c0,0.1,0.1,0.1,0.1,0.1c0,0.1-0.1,0.1-0.2,0.1c-0.1,0-0.3,0-0.3,0c-0.1,0.2-0.2,0.3-0.4,0.5h4l0.5-0.6
			c0.2,0.2,0.5,0.4,0.7,0.6c0.1,0,0.1,0.1,0.1,0.1c0,0.1-0.1,0.2-0.2,0.2h-5.4c-0.1,0.1-0.2,0.2-0.2,0.2c-0.3,0.3-0.7,0.6-1,0.8
			c-0.3,0.2-0.6,0.4-1,0.6c0.6,0,1.1,0,1.5-0.1c0.6,0,1.2-0.1,1.9-0.1c0.6,0,1.3-0.1,2-0.1c0,0,0-0.1-0.1-0.1
			c-0.3-0.2-0.7-0.5-1.2-0.7l0.1-0.1c0.4,0.2,0.8,0.4,1.2,0.6c0.3,0.2,0.6,0.3,0.8,0.5c0.2,0.1,0.3,0.2,0.4,0.3
			c0.1,0.1,0.1,0.2,0.2,0.2c0,0.1,0.1,0.1,0.1,0.2c0,0.2-0.1,0.3-0.2,0.3c-0.1,0-0.1,0-0.2-0.1c-0.1,0-0.2-0.2-0.4-0.4
			c-0.1-0.2-0.3-0.3-0.4-0.5c-0.8,0.1-1.4,0.2-2,0.2c-0.7,0.1-1.3,0.1-1.9,0.2c-0.6,0-1.2,0.1-1.8,0.1c-0.1,0.2-0.1,0.4-0.2,0.4
			c-0.1,0-0.2-0.3-0.5-0.8h0.2c0.4-0.3,0.8-0.5,1.1-0.8c0.3-0.2,0.5-0.5,0.8-0.7c0,0,0.1-0.1,0.1-0.1h-2.4c-0.5,0-0.8,0-1,0
			L235.2,24z M237.2,27l0.6,0.4h5l0.3-0.4c0.3,0.2,0.4,0.3,0.5,0.4c0,0,0.1,0.1,0.1,0.1c0,0.1-0.1,0.2-0.4,0.3v3.9
			c0,0.2,0,0.4-0.1,0.5c-0.1,0.1-0.2,0.2-0.3,0.3c-0.1,0.1-0.3,0.1-0.4,0.1c0-0.1-0.1-0.3-0.1-0.3c-0.1-0.1-0.3-0.2-0.5-0.2
			c-0.3-0.1-0.6-0.1-0.9-0.1v-0.2c0.6,0.1,1.2,0.2,1.7,0.2c0.1,0,0.2,0,0.2,0c0,0,0.1-0.1,0.1-0.3v-1.9c-0.6,0.2-1.1,0.4-1.6,0.5
			c-0.6,0.2-1.1,0.3-1.6,0.4c-0.5,0.1-1,0.2-1.5,0.3c-0.1,0.3-0.2,0.4-0.2,0.4c0,0-0.2-0.2-0.4-0.7c0,0.2-0.1,0.3-0.1,0.4
			c-0.1,0.2-0.2,0.5-0.3,0.7c-0.1,0.2-0.3,0.3-0.5,0.5c-0.2,0.2-0.4,0.3-0.7,0.4l-0.1-0.1c0.2-0.1,0.4-0.3,0.5-0.4
			c0.1-0.1,0.3-0.3,0.3-0.4c0.1-0.2,0.2-0.4,0.3-0.6c0.1-0.3,0.1-0.5,0.2-0.8c0.1-0.4,0.1-0.8,0.1-1.2
			C237.2,28.2,237.2,27.5,237.2,27z M237.6,30.4c0.6-0.1,1.2-0.2,1.7-0.2c0.5-0.1,1.1-0.2,1.7-0.3c0.6-0.1,1.2-0.3,1.9-0.5v-1.6
			h-5.2v0.4c0.7,0,1.3,0.1,1.7,0.2c0.5,0.1,0.9,0.2,1.2,0.3c0.3,0.1,0.5,0.2,0.6,0.3c0.1,0.1,0.1,0.2,0.1,0.3c0,0.1-0.1,0.2-0.2,0.2
			c-0.1,0-0.2,0-0.3-0.1c-0.6-0.2-1.1-0.4-1.7-0.6c-0.5-0.2-1-0.3-1.4-0.3v0.8c0,0.4,0,0.7-0.1,1C237.6,30.2,237.6,30.3,237.6,30.4z
			"/>
		<path class="st0" d="M246,24.3c0.3,0.1,0.7,0.1,1.2,0.1h1V24c0-0.4,0-0.6,0-0.8c0.4,0,0.7,0.1,1,0.2c0.1,0,0.1,0.1,0.1,0.2
			c0,0.1-0.1,0.1-0.1,0.1c-0.1,0.1-0.3,0.1-0.4,0.1v0.6h3.4V24c0-0.4,0-0.6,0-0.8c0.4,0,0.7,0.1,1,0.2c0.1,0,0.1,0.1,0.1,0.2
			c0,0.1,0,0.1-0.1,0.1c-0.1,0.1-0.3,0.1-0.4,0.1v0.6h1.2l0.5-0.5c0.2,0.2,0.5,0.4,0.7,0.5c0.1,0,0.1,0.1,0.1,0.1
			c0,0.1,0,0.2-0.1,0.2h-2.3v3.4h1.6l0.5-0.6c0.3,0.2,0.5,0.4,0.7,0.6c0.1,0,0.1,0.1,0.1,0.1c0,0.1-0.1,0.2-0.2,0.2h-2.8
			c0.1,0.2,0.3,0.4,0.5,0.6c0.2,0.2,0.5,0.4,0.8,0.6c0.3,0.2,0.6,0.4,0.9,0.5c0.3,0.1,0.5,0.2,0.8,0.3v0.2c-0.3,0-0.6,0.1-0.7,0.3
			c-0.3-0.1-0.5-0.3-0.7-0.4c-0.2-0.2-0.4-0.4-0.6-0.6c-0.2-0.2-0.4-0.4-0.6-0.6c-0.2-0.2-0.4-0.5-0.6-0.9h-3.6
			c-0.1,0.3-0.3,0.5-0.5,0.7c-0.2,0.3-0.4,0.5-0.7,0.7c-0.2,0.2-0.5,0.4-0.8,0.6c-0.3,0.2-0.6,0.4-1,0.6l-0.1-0.2
			c0.4-0.2,0.7-0.5,1-0.7c0.3-0.2,0.5-0.4,0.7-0.7c0.2-0.2,0.4-0.4,0.5-0.7c0.1-0.2,0.2-0.3,0.3-0.5h-1.3c-0.5,0-0.8,0-1,0l-0.2-0.4
			c0.3,0.1,0.7,0.1,1.2,0.1h1.4v-3.4h-1c-0.5,0-0.8,0-1,0L246,24.3z M247.9,30.1c0.3,0.1,0.7,0.1,1.2,0.1h1.1v-0.5
			c0-0.4,0-0.6,0-0.8c0.4,0.1,0.7,0.1,1,0.2c0.1,0,0.1,0.1,0.1,0.1c0,0.1,0,0.1-0.1,0.1c-0.1,0.1-0.3,0.1-0.4,0.1v0.7h1.3l0.4-0.5
			c0.2,0.2,0.5,0.3,0.7,0.5c0.1,0,0.1,0.1,0.1,0.1c0,0.1,0,0.2-0.1,0.2h-2.4V32h2.9l0.5-0.6c0.3,0.2,0.5,0.4,0.7,0.6
			c0.1,0,0.1,0.1,0.1,0.1c0,0.1,0,0.2-0.2,0.2h-7.5c-0.5,0-0.8,0-1,0l-0.2-0.5c0.3,0.1,0.7,0.1,1.2,0.1h3v-1.5h-1.1
			c-0.5,0-0.8,0-1,0L247.9,30.1z M248.7,25.6h3.4v-0.9h-3.4V25.6z M248.7,26.9h3.4v-1h-3.4V26.9z M248.7,28.1h3.4v-0.9h-3.4V28.1z"
			/>
		<path class="st0" d="M260.5,23.1c0.3,0.1,0.6,0.1,0.8,0.2c0,0,0.1,0,0.1,0.1c0,0.1-0.1,0.1-0.2,0.1c-0.1,0-0.2,0-0.2,0
			c0.3,0.4,0.6,0.8,0.9,1.1c0.4,0.3,0.8,0.6,1.2,0.9c0.5,0.3,0.9,0.5,1.4,0.7c0.4,0.2,0.9,0.3,1.3,0.4v0.2c-0.3,0-0.6,0.1-0.7,0.3
			c-0.5-0.2-0.9-0.4-1.2-0.6c-0.4-0.3-0.8-0.5-1.1-0.8c-0.4-0.3-0.7-0.6-1-0.9c-0.3-0.3-0.7-0.7-1-1.2c-0.2,0.3-0.3,0.6-0.5,0.8
			c-0.2,0.3-0.5,0.6-0.8,0.9c-0.4,0.3-0.7,0.6-1,0.8c-0.3,0.3-0.6,0.5-1,0.7c-0.4,0.3-0.8,0.5-1.2,0.7l-0.1-0.2
			c0.5-0.3,1-0.5,1.4-0.8c0.4-0.3,0.7-0.6,1.1-0.9c0.4-0.3,0.7-0.7,1-1c0.3-0.3,0.5-0.6,0.6-0.8C260.3,23.6,260.4,23.4,260.5,23.1z
			 M258.6,26.5c0.3,0.1,0.7,0.1,1.2,0.1h2.2l0.4-0.5c0.2,0.2,0.5,0.3,0.7,0.5c0,0,0.1,0.1,0.1,0.1c0,0.1,0,0.2-0.1,0.2H261v1.6h2.7
			l0.5-0.6c0.3,0.2,0.5,0.4,0.7,0.6c0.1,0,0.1,0.1,0.1,0.1c0,0.1-0.1,0.2-0.2,0.2H261v3.2h3.2l0.6-0.6c0.3,0.2,0.5,0.4,0.8,0.6
			c0.1,0,0.1,0.1,0.1,0.1c0,0.1-0.1,0.2-0.2,0.2h-8.2c-0.5,0-0.8,0-1,0l-0.2-0.4c0.3,0.1,0.7,0.1,1.2,0.1h3.2v-3.2h-2.6
			c-0.5,0-0.8,0-1,0l-0.2-0.4c0.3,0.1,0.7,0.1,1.2,0.1h2.6v-1.6h-0.8c-0.5,0-0.8,0-1,0L258.6,26.5z M258,29.3
			c0.2,0.2,0.4,0.3,0.5,0.6c0.2,0.2,0.3,0.3,0.4,0.5c0.1,0.2,0.2,0.3,0.2,0.4c0,0.1,0,0.2,0,0.3c0,0.1,0,0.2,0,0.3
			c-0.1,0.1-0.1,0.1-0.2,0.1c-0.1,0-0.1,0-0.1-0.1c0,0-0.1-0.1-0.1-0.3c0-0.2-0.1-0.4-0.2-0.6c-0.1-0.2-0.2-0.4-0.3-0.5
			c-0.1-0.2-0.2-0.3-0.4-0.5L258,29.3z M263.3,29.3c0.5,0.2,0.8,0.4,0.8,0.5c0,0.1-0.2,0.1-0.5,0.1c-0.2,0.2-0.4,0.5-0.7,0.8
			c-0.3,0.3-0.6,0.6-0.9,0.9l-0.1-0.1c0.3-0.3,0.5-0.6,0.7-0.9c0.2-0.3,0.3-0.5,0.5-0.7C263.2,29.8,263.3,29.5,263.3,29.3z"/>
		<path class="st0" d="M270.9,22.9c0.3,0.1,0.6,0.1,0.8,0.2c0.1,0,0.1,0.1,0.1,0.1c0,0.1-0.1,0.1-0.2,0.2c-0.1,0-0.1,0-0.2,0
			c0.3,0.2,0.5,0.5,0.8,0.7c0.4,0.2,0.8,0.5,1.3,0.7c0.5,0.2,1,0.4,1.4,0.6c0.5,0.1,0.9,0.2,1.3,0.3v0.2c-0.4,0-0.6,0.1-0.7,0.3
			c-0.5-0.1-0.9-0.3-1.3-0.5c-0.4-0.2-0.8-0.4-1.1-0.6c-0.4-0.2-0.7-0.4-1-0.7c-0.3-0.2-0.6-0.5-1-0.9c-0.2,0.2-0.4,0.5-0.6,0.6
			c-0.3,0.2-0.5,0.5-0.8,0.7c-0.3,0.2-0.7,0.4-1,0.6c-0.3,0.2-0.7,0.3-1,0.5c0,0,0,0,0,0l0.5,0.3h5.8l0.3-0.3
			c0.3,0.2,0.5,0.4,0.5,0.4c0,0.1-0.1,0.2-0.3,0.3v2.2c0,0.1-0.1,0.2-0.3,0.2c-0.1,0-0.2,0-0.2-0.1v-0.2h-6v0.2c0,0.1,0,0.1-0.1,0.2
			c-0.1,0-0.2,0.1-0.2,0.1c-0.1,0-0.1,0-0.1-0.1v-2.9c-0.3,0.2-0.7,0.3-1.1,0.4l-0.2-0.2c0.5-0.2,1-0.4,1.4-0.6
			c0.4-0.2,0.7-0.4,1.1-0.7c0.4-0.2,0.7-0.5,1-0.7c0.3-0.2,0.5-0.4,0.6-0.6C270.7,23.3,270.8,23.1,270.9,22.9z M268.2,28.3h2.7v-1.9
			h-2.7V28.3z M268.4,29l0.6,0.3h4.5l0.3-0.3c0.3,0.2,0.5,0.3,0.5,0.4c0,0.1-0.1,0.2-0.3,0.3v2.6c0,0.1-0.1,0.2-0.3,0.2
			c-0.1,0-0.2,0-0.2-0.1v-0.2h-4.7v0.1c0,0.1,0,0.1-0.1,0.1c-0.1,0-0.2,0-0.2,0c-0.1,0-0.1,0-0.1-0.1V29z M269,26.6
			c0.2,0.1,0.3,0.2,0.4,0.3c0.1,0.1,0.3,0.2,0.4,0.3c0.1,0.1,0.2,0.2,0.2,0.3c0,0.1,0.1,0.2,0.1,0.2c0,0.1,0,0.2-0.1,0.3
			c-0.1,0.1-0.1,0.1-0.2,0.1c-0.1,0-0.1,0-0.1-0.1c0,0-0.1-0.1-0.1-0.2c0-0.1-0.1-0.3-0.2-0.4c-0.1-0.1-0.2-0.3-0.3-0.4
			c-0.1-0.1-0.2-0.2-0.4-0.4L269,26.6z M268.9,30.7h4.7v-1.1h-4.7V30.7z M268.9,32.1h4.7V31h-4.7V32.1z M269.5,25
			c0.3,0.1,0.7,0.1,1.2,0.1h1.3l0.5-0.4c0.2,0.2,0.4,0.3,0.6,0.5c0.1,0,0.1,0.1,0.1,0.1c0,0.1,0,0.2-0.1,0.2h-2.4c-0.5,0-0.8,0-1,0
			L269.5,25z M271.4,28.3h2.8v-1.9h-2.8V28.3z M273,26.6c0.3,0.1,0.6,0.2,0.8,0.3c0,0,0.1,0.1,0.1,0.1c0,0.1-0.1,0.1-0.2,0.1
			c-0.1,0-0.2,0-0.3,0c-0.1,0.2-0.2,0.3-0.3,0.4c-0.1,0.1-0.2,0.2-0.3,0.3c-0.1,0.1-0.2,0.2-0.4,0.3l-0.2-0.1
			c0.1-0.2,0.2-0.3,0.3-0.4c0.1-0.1,0.1-0.3,0.2-0.4c0.1-0.1,0.1-0.3,0.2-0.4C272.9,26.8,273,26.7,273,26.6z"/>
		<path class="st0" d="M107.1,39.7c0,0.7-0.1,1.3-0.4,1.9c-0.3,0.6-0.7,1-1.2,1.3c-0.4,0.2-0.7,0.4-1.2,0.5c-0.4,0.1-1,0.1-1.7,0.1
			h-1.9v-7.6h1.9c0.7,0,1.3,0.1,1.8,0.2c0.4,0.1,0.8,0.3,1.1,0.4c0.5,0.3,0.9,0.8,1.2,1.3C106.9,38.3,107.1,39,107.1,39.7z
			 M106,39.7c0-0.6-0.1-1.1-0.3-1.5c-0.2-0.4-0.5-0.7-0.9-1c-0.3-0.2-0.6-0.3-1-0.3c-0.3-0.1-0.7-0.1-1.2-0.1h-0.9v5.8h0.9
			c0.5,0,0.9,0,1.3-0.1c0.4-0.1,0.7-0.2,1-0.4c0.4-0.2,0.7-0.6,0.8-0.9C105.9,40.8,106,40.3,106,39.7z"/>
		<path class="st0" d="M109.7,36.8h-1.1v-1h1.1V36.8z M109.7,43.5h-1v-5.7h1V43.5z"/>
		<path class="st0" d="M119.9,43.5h-1v-3.2c0-0.2,0-0.5,0-0.7c0-0.2-0.1-0.4-0.1-0.6c-0.1-0.1-0.2-0.3-0.3-0.3
			c-0.1-0.1-0.4-0.1-0.6-0.1c-0.3,0-0.5,0.1-0.8,0.2c-0.3,0.1-0.5,0.3-0.8,0.5c0,0.1,0,0.2,0,0.3c0,0.1,0,0.2,0,0.3v3.6h-1v-3.2
			c0-0.2,0-0.5,0-0.7c0-0.2-0.1-0.4-0.1-0.5c-0.1-0.1-0.2-0.3-0.3-0.3c-0.1-0.1-0.4-0.1-0.6-0.1s-0.5,0.1-0.8,0.2
			c-0.3,0.1-0.5,0.3-0.8,0.5v4.2h-1v-5.7h1v0.6c0.3-0.2,0.6-0.4,0.9-0.6c0.3-0.1,0.6-0.2,0.9-0.2c0.4,0,0.7,0.1,1,0.2
			c0.3,0.2,0.5,0.4,0.6,0.7c0.4-0.3,0.7-0.6,1.1-0.7c0.3-0.1,0.7-0.2,1-0.2c0.6,0,1.1,0.2,1.4,0.6c0.3,0.4,0.4,0.9,0.4,1.6V43.5z"/>
		<path class="st0" d="M126.6,40.7h-4.2c0,0.3,0.1,0.7,0.2,0.9c0.1,0.3,0.3,0.5,0.4,0.6c0.2,0.2,0.4,0.3,0.6,0.4
			c0.2,0.1,0.5,0.1,0.8,0.1c0.4,0,0.8-0.1,1.2-0.2c0.4-0.2,0.7-0.3,0.8-0.5h0.1v1c-0.3,0.1-0.6,0.2-1,0.3c-0.3,0.1-0.7,0.1-1,0.1
			c-1,0-1.7-0.3-2.2-0.8c-0.5-0.5-0.8-1.2-0.8-2.2c0-0.9,0.2-1.7,0.8-2.2c0.5-0.6,1.2-0.8,2-0.8c0.8,0,1.4,0.2,1.8,0.7
			c0.4,0.5,0.6,1.1,0.6,1.9V40.7z M125.7,40c0-0.5-0.1-0.9-0.4-1.2c-0.2-0.3-0.6-0.4-1.1-0.4c-0.5,0-0.9,0.2-1.2,0.4
			c-0.3,0.3-0.5,0.7-0.5,1.1H125.7z"/>
		<path class="st0" d="M132.9,43.5h-1v-3.2c0-0.2,0-0.5-0.1-0.7c0-0.2-0.1-0.4-0.2-0.5c-0.1-0.1-0.2-0.3-0.4-0.3
			c-0.2-0.1-0.4-0.1-0.6-0.1c-0.3,0-0.5,0.1-0.8,0.2c-0.3,0.1-0.6,0.3-0.8,0.5v4.2h-1v-5.7h1v0.6c0.3-0.2,0.6-0.4,0.9-0.6
			c0.3-0.1,0.6-0.2,1-0.2c0.6,0,1.1,0.2,1.4,0.6c0.3,0.4,0.5,0.9,0.5,1.6V43.5z"/>
		<path class="st0" d="M138.9,41.8c0,0.5-0.2,0.9-0.6,1.3c-0.4,0.3-1,0.5-1.8,0.5c-0.4,0-0.8-0.1-1.2-0.2c-0.3-0.1-0.6-0.2-0.9-0.3
			v-1.1h0c0.3,0.2,0.6,0.4,1,0.5c0.4,0.1,0.7,0.2,1.1,0.2c0.4,0,0.7-0.1,1-0.2c0.2-0.1,0.4-0.3,0.4-0.6c0-0.2-0.1-0.4-0.2-0.5
			c-0.1-0.1-0.4-0.2-0.7-0.3c-0.1,0-0.3-0.1-0.5-0.1c-0.2,0-0.4-0.1-0.6-0.1c-0.5-0.1-0.9-0.3-1.1-0.6c-0.2-0.3-0.3-0.6-0.3-0.9
			c0-0.2,0-0.5,0.1-0.7c0.1-0.2,0.2-0.4,0.4-0.6c0.2-0.2,0.4-0.3,0.7-0.4c0.3-0.1,0.6-0.1,1-0.1c0.3,0,0.7,0,1,0.1
			c0.4,0.1,0.6,0.2,0.9,0.3v1h0c-0.2-0.2-0.5-0.3-0.9-0.5c-0.3-0.1-0.7-0.2-1-0.2c-0.3,0-0.6,0.1-0.9,0.2c-0.2,0.1-0.4,0.3-0.4,0.6
			c0,0.2,0.1,0.4,0.2,0.5c0.1,0.1,0.4,0.2,0.7,0.3c0.2,0,0.4,0.1,0.6,0.1c0.2,0,0.4,0.1,0.5,0.1c0.4,0.1,0.8,0.3,1,0.5
			C138.8,41.1,138.9,41.4,138.9,41.8z"/>
		<path class="st0" d="M141.4,36.8h-1.1v-1h1.1V36.8z M141.4,43.5h-1v-5.7h1V43.5z"/>
		<path class="st0" d="M148.2,40.6c0,0.9-0.2,1.6-0.7,2.2c-0.5,0.5-1.1,0.8-1.9,0.8c-0.8,0-1.4-0.3-1.9-0.8
			c-0.5-0.6-0.7-1.3-0.7-2.2c0-0.9,0.2-1.7,0.7-2.2c0.5-0.5,1.1-0.8,1.9-0.8c0.8,0,1.4,0.3,1.9,0.8C148,39,148.2,39.7,148.2,40.6z
			 M147.2,40.6c0-0.7-0.1-1.3-0.4-1.6c-0.3-0.4-0.7-0.5-1.2-0.5c-0.5,0-0.9,0.2-1.2,0.5c-0.3,0.3-0.4,0.9-0.4,1.6
			c0,0.7,0.1,1.3,0.4,1.6c0.3,0.4,0.7,0.6,1.2,0.6c0.5,0,0.9-0.2,1.2-0.5C147.1,41.9,147.2,41.4,147.2,40.6z"/>
		<path class="st0" d="M154.5,43.5h-1v-3.2c0-0.2,0-0.5,0-0.7c0-0.2-0.1-0.4-0.2-0.5c-0.1-0.1-0.2-0.3-0.4-0.3
			c-0.2-0.1-0.4-0.1-0.6-0.1c-0.3,0-0.5,0.1-0.8,0.2c-0.3,0.1-0.6,0.3-0.8,0.5v4.2h-1v-5.7h1v0.6c0.3-0.2,0.6-0.4,0.9-0.6
			c0.3-0.1,0.7-0.2,1-0.2c0.6,0,1.1,0.2,1.4,0.6c0.3,0.4,0.5,0.9,0.5,1.6V43.5z"/>
		<path class="st0" d="M165.3,43.5h-5v-7.6h5v0.9h-4v2.1h4v0.9h-4v2.8h4V43.5z"/>
		<path class="st0" d="M171.7,43.5h-1v-3.2c0-0.2,0-0.5,0-0.7c0-0.2-0.1-0.4-0.2-0.5c-0.1-0.1-0.2-0.3-0.4-0.3
			c-0.2-0.1-0.4-0.1-0.6-0.1c-0.3,0-0.5,0.1-0.8,0.2c-0.3,0.1-0.6,0.3-0.8,0.5v4.2h-1v-5.7h1v0.6c0.3-0.2,0.6-0.4,0.9-0.6
			c0.3-0.1,0.6-0.2,1-0.2c0.6,0,1.1,0.2,1.4,0.6c0.3,0.4,0.5,0.9,0.5,1.6V43.5z"/>
		<path class="st0" d="M178.2,43.5h-1v-0.6c-0.3,0.2-0.6,0.4-0.9,0.5c-0.3,0.1-0.6,0.2-1,0.2c-0.7,0-1.2-0.3-1.6-0.8
			c-0.4-0.5-0.6-1.2-0.6-2.2c0-0.5,0.1-0.9,0.2-1.3c0.1-0.4,0.3-0.7,0.6-1c0.2-0.3,0.5-0.4,0.8-0.6c0.3-0.1,0.6-0.2,1-0.2
			c0.3,0,0.6,0,0.8,0.1c0.2,0.1,0.5,0.2,0.7,0.3v-2.5h1V43.5z M177.3,42.1v-3.2c-0.3-0.1-0.5-0.2-0.7-0.2c-0.2,0-0.4-0.1-0.7-0.1
			c-0.5,0-1,0.2-1.2,0.6c-0.3,0.4-0.4,0.9-0.4,1.6c0,0.7,0.1,1.2,0.3,1.5c0.2,0.4,0.6,0.5,1.1,0.5c0.3,0,0.6-0.1,0.8-0.2
			C176.8,42.4,177,42.3,177.3,42.1z"/>
		<path class="st0" d="M185,40.6c0,0.9-0.2,1.6-0.7,2.2c-0.5,0.5-1.1,0.8-1.9,0.8c-0.8,0-1.4-0.3-1.9-0.8c-0.5-0.6-0.7-1.3-0.7-2.2
			c0-0.9,0.2-1.7,0.7-2.2c0.5-0.5,1.1-0.8,1.9-0.8c0.8,0,1.4,0.3,1.9,0.8C184.8,39,185,39.7,185,40.6z M184,40.6
			c0-0.7-0.1-1.3-0.4-1.6c-0.3-0.4-0.7-0.5-1.2-0.5c-0.5,0-0.9,0.2-1.2,0.5c-0.3,0.3-0.4,0.9-0.4,1.6c0,0.7,0.2,1.3,0.4,1.6
			c0.3,0.4,0.7,0.6,1.2,0.6c0.5,0,0.9-0.2,1.2-0.5C183.9,41.9,184,41.4,184,40.6z"/>
		<path class="st0" d="M193.8,37.8l-1.5,5.7h-0.9l-1.5-4.4l-1.4,4.4h-0.9l-1.5-5.7h1l1,4.4l1.4-4.4h0.8l1.5,4.4l1-4.4H193.8z"/>
		<path class="st0" d="M203.5,43.5h-1v-3.2c0-0.2,0-0.5,0-0.7c0-0.2-0.1-0.4-0.1-0.6c-0.1-0.1-0.2-0.3-0.3-0.3
			c-0.1-0.1-0.4-0.1-0.6-0.1c-0.3,0-0.5,0.1-0.8,0.2c-0.3,0.1-0.6,0.3-0.8,0.5c0,0.1,0,0.2,0,0.3c0,0.1,0,0.2,0,0.3v3.6h-1v-3.2
			c0-0.2,0-0.5,0-0.7c0-0.2-0.1-0.4-0.1-0.5c-0.1-0.1-0.2-0.3-0.3-0.3c-0.1-0.1-0.4-0.1-0.6-0.1c-0.3,0-0.5,0.1-0.8,0.2
			c-0.3,0.1-0.5,0.3-0.8,0.5v4.2h-1v-5.7h1v0.6c0.3-0.2,0.6-0.4,0.9-0.6c0.3-0.1,0.6-0.2,1-0.2c0.4,0,0.7,0.1,1,0.2
			c0.3,0.2,0.5,0.4,0.6,0.7c0.4-0.3,0.7-0.6,1.1-0.7c0.3-0.1,0.7-0.2,1-0.2c0.6,0,1.1,0.2,1.4,0.6c0.3,0.4,0.4,0.9,0.4,1.6V43.5z"/>
		<path class="st0" d="M210.2,40.7H206c0,0.3,0,0.7,0.2,0.9c0.1,0.3,0.2,0.5,0.4,0.6c0.2,0.2,0.4,0.3,0.6,0.4
			c0.2,0.1,0.5,0.1,0.8,0.1c0.4,0,0.8-0.1,1.2-0.2c0.4-0.2,0.7-0.3,0.8-0.5h0v1c-0.3,0.1-0.6,0.2-1,0.3c-0.3,0.1-0.7,0.1-1.1,0.1
			c-0.9,0-1.7-0.3-2.2-0.8c-0.5-0.5-0.8-1.2-0.8-2.2c0-0.9,0.2-1.7,0.7-2.2c0.5-0.6,1.2-0.8,2-0.8c0.8,0,1.4,0.2,1.8,0.7
			c0.4,0.5,0.6,1.1,0.6,1.9V40.7z M209.3,40c0-0.5-0.1-0.9-0.4-1.2c-0.3-0.3-0.6-0.4-1.1-0.4c-0.5,0-0.9,0.2-1.2,0.4
			c-0.3,0.3-0.5,0.7-0.5,1.1H209.3z"/>
		<path class="st0" d="M216.5,43.5h-1v-3.2c0-0.2,0-0.5,0-0.7c0-0.2-0.1-0.4-0.2-0.5c-0.1-0.1-0.2-0.3-0.4-0.3
			c-0.2-0.1-0.4-0.1-0.6-0.1c-0.3,0-0.6,0.1-0.8,0.2c-0.3,0.1-0.6,0.3-0.8,0.5v4.2h-1v-5.7h1v0.6c0.3-0.2,0.6-0.4,0.9-0.6
			c0.3-0.1,0.6-0.2,1-0.2c0.6,0,1.1,0.2,1.4,0.6c0.3,0.4,0.5,0.9,0.5,1.6V43.5z"/>
		<path class="st0" d="M221.4,43.4c-0.2,0.1-0.4,0.1-0.6,0.1c-0.2,0-0.4,0-0.6,0c-0.6,0-1-0.2-1.3-0.5c-0.3-0.3-0.4-0.8-0.4-1.5v-3
			h-0.6v-0.8h0.6v-1.6h1v1.6h2v0.8h-2v2.6c0,0.3,0,0.5,0,0.7c0,0.2,0.1,0.3,0.1,0.5c0.1,0.1,0.2,0.2,0.3,0.3
			c0.1,0.1,0.3,0.1,0.6,0.1c0.2,0,0.3,0,0.5-0.1c0.2-0.1,0.3-0.1,0.4-0.1h0.1V43.4z"/>
		<path class="st0" d="M232.1,36.8c0.3,0.3,0.6,0.8,0.7,1.3c0.2,0.5,0.2,1,0.2,1.7c0,0.6-0.1,1.2-0.2,1.7c-0.2,0.5-0.4,0.9-0.7,1.2
			c-0.3,0.3-0.7,0.6-1.1,0.8c-0.4,0.2-0.9,0.3-1.4,0.3c-0.5,0-1-0.1-1.5-0.3c-0.4-0.2-0.8-0.4-1.1-0.8c-0.3-0.3-0.6-0.7-0.7-1.2
			c-0.2-0.5-0.3-1-0.3-1.7c0-0.6,0.1-1.2,0.3-1.7c0.2-0.5,0.4-0.9,0.7-1.3c0.3-0.3,0.7-0.6,1.1-0.8c0.4-0.2,0.9-0.3,1.5-0.3
			c0.5,0,1,0.1,1.4,0.3C231.5,36.2,231.8,36.4,232.1,36.8z M232,39.7c0-1-0.2-1.7-0.7-2.3c-0.4-0.5-1-0.8-1.8-0.8
			c-0.8,0-1.4,0.3-1.8,0.8c-0.4,0.5-0.7,1.3-0.7,2.3c0,1,0.2,1.8,0.7,2.3c0.4,0.5,1,0.8,1.8,0.8c0.8,0,1.3-0.2,1.8-0.8
			C231.8,41.4,232,40.7,232,39.7z"/>
		<path class="st0" d="M237.8,36.5L237.8,36.5c-0.2,0-0.3-0.1-0.5-0.1c-0.2,0-0.3,0-0.4,0c-0.4,0-0.7,0.1-0.9,0.3
			c-0.2,0.2-0.3,0.5-0.3,1v0.2h1.7v0.8h-1.7v4.9h-1v-4.9h-0.6v-0.8h0.6v-0.2c0-0.7,0.2-1.2,0.5-1.6c0.3-0.4,0.8-0.5,1.5-0.5
			c0.2,0,0.4,0,0.6,0c0.2,0,0.3,0,0.5,0.1V36.5z"/>
		<path class="st0" d="M248.3,43.5h-1.1l-0.7-2.1h-3.3l-0.7,2.1h-1l2.8-7.6h1.3L248.3,43.5z M246.2,40.5l-1.3-3.7l-1.3,3.7H246.2z"
			/>
		<path class="st0" d="M253,38.8L253,38.8c-0.2,0-0.3-0.1-0.5-0.1c-0.1,0-0.3,0-0.5,0c-0.3,0-0.6,0.1-0.8,0.2
			c-0.3,0.1-0.5,0.3-0.8,0.5v4h-1v-5.7h1v0.8c0.4-0.3,0.7-0.5,1-0.7c0.3-0.1,0.6-0.2,0.9-0.2c0.2,0,0.3,0,0.4,0c0.1,0,0.2,0,0.3,0
			V38.8z"/>
		<path class="st0" d="M256.9,43.4c-0.2,0.1-0.4,0.1-0.6,0.1c-0.2,0-0.4,0-0.6,0c-0.6,0-1-0.2-1.3-0.5c-0.3-0.3-0.5-0.8-0.5-1.5v-3
			h-0.6v-0.8h0.6v-1.6h1v1.6h2v0.8h-2v2.6c0,0.3,0,0.5,0,0.7c0,0.2,0.1,0.3,0.1,0.5c0.1,0.1,0.2,0.2,0.3,0.3
			c0.1,0.1,0.3,0.1,0.6,0.1c0.2,0,0.3,0,0.5-0.1c0.2-0.1,0.3-0.1,0.4-0.1h0V43.4z"/>
	</g>
</g>
</svg>
