<?xml version="1.0" encoding="utf-8"?>
<!-- Generator: Adobe Illustrator 21.1.0, SVG Export Plug-In . SVG Version: 6.00 Build 0)  -->
<svg version="1.1" id="圖層_1" xmlns="http://www.w3.org/2000/svg" xmlns:xlink="http://www.w3.org/1999/xlink" x="0px" y="0px"
	 viewBox="0 0 1086 246.6" style="enable-background:new 0 0 1086 246.6;" xml:space="preserve">
<style type="text/css">
	.st0{fill-rule:evenodd;clip-rule:evenodd;fill:#D53B1E;}
	.st1{fill-rule:evenodd;clip-rule:evenodd;fill:#E0651B;}
	.st2{fill-rule:evenodd;clip-rule:evenodd;fill:#97BD3F;}
	.st3{fill-rule:evenodd;clip-rule:evenodd;fill:#ECA321;}
	.st4{fill-rule:evenodd;clip-rule:evenodd;fill:#1584C0;}
	.st5{fill-rule:evenodd;clip-rule:evenodd;fill:#FFFFFF;}
</style>
<path class="st0" d="M221.1,7.9c3,5.1,5.9,10.2,8.9,15.4c5.8,7.6,11.5,15.2,17.3,22.8c6.6,8.4,14.9,16.8,23.3,23.5
	c6.6,5.3,12.6,11.6,19.4,16.8c21.7,16.4,45.5,30.8,72,42.5c14.5,6.4,29.4,12.4,45.6,17.5c4.4,1.4,8.8,2.7,13.2,4.1
	c0,0.1,0,0.2,0,0.2c-35,0-70.1,0-105.1,0c0,0.1,0,0.2,0,0.2c9,34.1,32.7,53.1,59,69.6c9.2,5.8,19.4,13.5,30.2,17c0,0.1,0,0.2,0,0.2
	c-12.8-0.7-30.5-8.2-41-12.5c-33-13.5-60.7-31.6-79.9-58.8c-6-8.4-13.7-19-16.1-30.5c16.7,0,33.4,0,50.2,0c-0.2-0.3-0.5-0.6-0.7-1
	c-2.8-2-5.6-4-8.4-6c-8-5.9-15-12.4-22.6-18.5C261.8,90.9,224.9,47.3,221.1,7.9z"/>
<path class="st1" d="M220.4,34.3c0.7,3.1-2,8.8-3.1,11.5c-4.4,10.9-10,18.9-16.6,27.4c-1.4,1.8-7.3,9.6-8.9,8.9
	c-5-2-15.3-12-18.5-16.3C196.5,66.1,211.5,48.5,220.4,34.3z"/>
<path class="st2" d="M146,49.9c1.7,4.5-4,22.7-5.3,26.4c-6.1,17.4-14.4,31.5-24.5,44.9c-4.3,4.9-8.6,9.8-13,14.6c0,0.1,0,0.2,0,0.2
	c41.7,0.1,83.4,0.2,125,0.2c-29.8,4.1-59.7,8.2-89.5,12.2c-2.3,1.8-3.2,7.4-4.6,10.1c-3.3,6.6-7.4,12.7-11.8,18.2
	c-13.8,17.7-33.6,27.9-56.4,36.7c-4.3,1.7-29.3,9.6-34.3,7.7c0.2,0,0.3,0,0.5,0c6.5-3.2,13-6.4,19.4-9.6
	c17.2-10.3,45.9-33.7,48.2-57.6c-0.1,0-0.2,0-0.2,0c-21.8,3.2-43.5,6.4-65.3,9.6c-8.6,1.2-17.3,2.4-25.9,3.6
	c3.1-1.3,6.2-2.6,9.4-3.8c9.1-3.9,17.8-7.7,25.9-12.5c30.7-17.9,58.1-37.1,79.2-64.6C129.7,77.6,143.3,61.6,146,49.9z"/>
<path class="st3" d="M154.1,57.4c4.6,5.7,9.3,11.4,13.9,17c12.5,15.5,29.5,28,47.3,38.4c6.9,4,15.1,8.1,24.2,9.6c0,0.1,0,0.2,0,0.2
	c-16.3,0-32.6,0-49,0c-4.3-1.3-11.7-9.3-14.4-12.7C165.7,96.8,154.7,79.9,154.1,57.4z"/>
<path class="st4" d="M207.2,178.6c23.2-0.3,42.4,2.5,59.8,7.9c5,2,10.1,4,15.1,6c0,0.1,0,0.2,0,0.2c-5-1-9.9-1.9-14.9-2.9
	c-5.5-0.6-11-1.1-16.6-1.7c-9.5-1.6-23.5,0.2-31.2,1.7c-22.7,4.4-40.5,10.3-56.9,20.6c-5.3,3.3-9.9,7.6-14.9,11.3c-20,0-40,0-60,0
	c0.2-0.2,0.3-0.5,0.5-0.7c6.2-3.9,12.3-7.8,18.5-11.8c12.7-7.6,26.7-13.6,41.3-19.2c11.8-4.6,25-7,38.6-9.6
	C193.4,179.9,200.3,179.2,207.2,178.6z"/>
<path class="st5" d="M729.2,71.5c7.9-0.1,14.1,1.4,18.6,4.5c0.6,1.8,1.4,4.6,0.5,6.8c-0.9,1.1-1.8,2.1-2.7,3.2c6.6,0,13.3,0,19.9,0
	c2.4-2.7,4.8-5.4,7.2-8.2c4.1,1.4,9.3,5.9,11.3,9.5c-0.2,0.3-0.3,0.6-0.5,0.9c-27.9,0.2-55.9,0.3-83.8,0.5c-0.3-1.2-0.6-2.4-0.9-3.6
	c5.8,1.6,34.9,2.8,40.8,0.5c-1.4-0.7-9.9-10.5-12.2-12.7C728,72.4,728.6,71.9,729.2,71.5z"/>
<path class="st5" d="M925.8,85.5c0.5,28.8-0.9,52.5-17.7,63.9c-0.5-0.3-0.9-0.6-1.4-0.9c7.6-16.8,7-44.9,5.9-68.9c0.2,0,0.3,0,0.5,0
	c9.6,3.3,21.1,3.6,34.9,3.6c-0.2-0.5-0.3-0.9-0.5-1.4c-2.6-3.7-3.4-6.6-8.2-8.2c0.2-0.6,0.3-1.2,0.5-1.8c8.4-0.4,16.9-0.6,19.5,5
	c0.8,2.9-0.1,4.4-1.4,6.3c5,0.1,12.4,0.7,15.9-0.9c1.8-2.1,3.6-4.2,5.4-6.3c4.3,0.7,8.7,5.1,10.9,8.2c0,0.5,0,0.9,0,1.4
	C968.7,85.5,947.3,85.5,925.8,85.5z"/>
<path class="st5" d="M937.2,87.8c5.8,0.1,11.7,2,15.9,4.1c-0.3,0.5-0.6,0.9-0.9,1.4c-4.7,0.7-7.7,9.7-8.6,14c2,0.4,2.1,0.6,3.2,1.8
	c-7.9,6.8,1,30.9-3.2,40.3c-3.2,0.8-8.3,1.5-11.3,0c0-9.8,0-19.6,0-29.4c-0.8,0.8-1.5,1.5-2.3,2.3c-1.5,0.9-3,1.8-4.5,2.7
	c-0.3-0.2-0.6-0.3-0.9-0.5c0-0.2,0-0.3,0-0.5C931,116.2,936.6,100.7,937.2,87.8z"/>
<path class="st5" d="M979.3,105.9c0.4,15.1,4.2,51.6-14.5,43.5c-0.7-6.3-3.7-9-10-9.5c0.2-0.6,0.3-1.2,0.5-1.8
	c3.4,0.2,10.4,0.8,12.2-0.9c0.2-10.4,0.3-20.8,0.5-31.3c-6.6,0.2-13.3,0.3-19.9,0.5c-0.5-1.1-0.9-2.1-1.4-3.2
	c7.1,0.2,14.2,0.3,21.3,0.5c-0.3-5.1-0.6-10.3-0.9-15.4c5,0.8,10,1.5,15,2.3c0.2,0.3,0.3,0.6,0.5,0.9c-1.1,0.9-2.1,1.8-3.2,2.7
	c0.2,3,0.3,6,0.5,9.1c0.2-0.3,0.3-0.6,0.5-0.9c1.2-2.4,2.4-4.8,3.6-7.2c3.9,1.2,6.5,6.5,8.2,10c-0.2,0.3-0.3,0.6-0.5,0.9
	C987.4,105.9,983.4,105.9,979.3,105.9z"/>
<path class="st5" d="M734.2,90.1c5.6,0.9,11.2,1.8,16.8,2.7c0.2,0.3,0.3,0.6,0.5,0.9c-0.3,0.5-0.6,0.9-0.9,1.4
	c-0.8,0.5-1.5,0.9-2.3,1.4c0,2.3,0,4.5,0,6.8c4.5,0,9.1,0,13.6,0c7.9-3,7.5-9.4,17.2,1.4c-0.9,1.8-3,2.2-3.6,3.6
	c-4.5,10.2,5.3,20-4.5,26.7c-2.9,1.9-7.5,3.6-11.3,3.2c-2-7.7-3.2-6.7-8.2-10.9c0.2-0.5,0.3-0.9,0.5-1.4c0.2,0,0.3,0,0.5,0
	c2.7,0.9,9,1.1,10.4-0.9c0.2-6.5,0.3-13,0.5-19.5c-5,0-10,0-15,0c0.1,10.5,2.6,36.2-0.9,43.9c-3.7,0.6-8.6,1.2-12.7,0.5
	c0-14.8,0-29.6,0-44.4c-4.7,0-9.4,0-14,0c0.1,9.8,2.9,27.1-0.5,34.4c-3.9,0.6-8.6,1.3-12.2,0c0-13.6,0-27.2,0-40.8
	c0.2,0,0.3,0,0.5,0c8,2.7,14.7,4.1,26.3,4.1C734.5,98.8,734.3,94.4,734.2,90.1z"/>
<path class="st5" d="M667.1,85.1c-2.9,0.8-3.5,2.8-5.4,3.6c-6.6,0.5-13.3,0.9-19.9,1.4c-0.2,0-0.3,0-0.5,0c0-3.9,0-7.9,0-11.8
	c0.9-0.6,1.8-1.2,2.7-1.8c0.3-0.5,0.6-0.9,0.9-1.4c-3.9-2.2-10.9-3.2-16.8-3.2c0.3,6.6,0.6,13.3,0.9,19.9
	c-7.4,0.9-13.2,3.5-18.6,6.3c0-2.9,0-5.7,0-8.6c-4.4-0.9-8.8-1.8-13.1-2.7c2.1,11.4,0.5,25.1,0.5,37.6c3.5,1.3,8.1,0.7,11.8,0
	c0.7-1.5,1-3.3,0.9-5.9c6.2,0,12.4,0,18.6,0c0,10.4,0,20.8,0,31.3c3.9,0.8,8.3,0.1,11.8-0.5c3.3-7.2,0.6-21.7,0.5-30.8
	c6.5,0,13,0,19.5,0c0,1.8,0,3.6,0,5.4c3.3,1.8,7.7,1.2,11.8,0.5c3.4-7.5-2.3-20.5,0.9-29c0.7-2,2.5-1.6,3.2-4.5
	C673.5,89,670.3,87,667.1,85.1z M629.1,116.3c-6.2,0-12.4,0-18.6,0c0-5,0-10,0-15c4-4.3,11.8-5.3,18.1-7.2c0.2,0,0.3,0,0.5,0
	C629.1,101.5,629.1,108.9,629.1,116.3z M660.8,116.3c-6.5,0-13,0-19.5,0c0-8,0-16,0-24c6.5-0.3,13-0.6,19.5-0.9
	C660.8,99.7,660.8,108,660.8,116.3z"/>
<path class="st5" d="M869.7,129.5c-0.3-0.5-0.6-0.9-0.9-1.4c6.9-9.8,7.2-20.7,12.2-33.5c1.1-1.1,3.1-1,5.4-0.9
	c-1.2-4-6.9-8.3-10.9-9.5c-2.1,2.6-4.2,5.1-6.3,7.7c-3,0-6,0-9.1,0c1.9-6.4,3.9-11.6,7.7-15.9c-3.4-2.6-11.4-3.5-16.3-4.1
	c-0.5,11.9-3,21.9-4.5,31.7c-0.2,0-0.3,0-0.5,0c-1.2-1.8-2.4-3.6-3.6-5.4c-0.9-0.8-1.8-1.5-2.7-2.3c-1.1,2-2.1,3.9-3.2,5.9
	c-0.2,0.3-0.3,0.6-0.5,0.9c-0.2-6.6-0.3-13.3-0.5-19.9c4.4,0,8.8,0,13.1,0c0-0.5,0-0.9,0-1.4c-2.3-3.2-6.2-7.5-10.4-8.6
	c-2,2.3-3.9,4.5-5.9,6.8c-5.6,2.6-21.7,1.7-27.6,0c-0.2,0-0.3,0-0.5,0c0.5,1.2,0.9,2.4,1.4,3.6c6.3-0.2,12.7-0.3,19-0.5
	c0,16.6,0,33.2,0,49.8c-2,0.3-3.9,0.6-5.9,0.9c-0.2-6.7-1.4-31.8,2.3-33.5c-1.3-3.2-9.5-3.9-13.6-4.1c2.1,11.1,1,26,0.9,38.5
	c-2.1,0.2-4.2,0.3-6.3,0.5c0,0.2,0,0.3,0,0.5c2,4.8,3.9,9.7,5.9,14.5c0.6,0,1.2,0,1.8,0c0.2-1.1,0.3-2.1,0.5-3.2
	c15.3-3.8,25.6-11.4,38.1-16.3c0.3-0.5,0.6-0.9,0.9-1.4c-0.2-0.3-0.3-0.6-0.5-0.9c-4.4,0.9-8.8,1.8-13.1,2.7c0-8.2,0-16.3,0-24.5
	c3.2,0,6.3,0,9.5,0c-0.9,2.7-1.8,5.4-2.7,8.2c0.3,0.2,0.6,0.3,0.9,0.5c2.9-3,5.7-6,8.6-9.1c3,7.2,2.6,16,5,22.2
	c-7.2,8-14.7,16.8-26.3,20.4c0,0.2,0,0.3,0,0.5c6.1,4,24.9-10.1,29.4-12.2c0.5-0.5,0.9-0.9,1.4-1.4c2.6,5.7,12.3,14.1,19.5,15
	c1.7-4.2,2-9.2,6.3-10.9C887.1,138,871.9,130.3,869.7,129.5z M862,120c-0.2,0.3-0.3,0.6-0.5,0.9c-4.8-11.8-8.2-15.2-2.3-26.7
	c3,0,6,0,9.1,0C868.2,103.8,866.3,114.3,862,120z"/>
<path class="st5" d="M573.8,81.9c-2.1-2.9-6.2-6.7-10-7.7c-2.1,2.1-4.2,4.2-6.3,6.3c-6.3,0-12.7,0-19,0c0-0.8,0-1.5,0-2.3
	c1.8-0.8,2.4-0.7,3.2-2.7c-5.1-0.8-10.3-1.5-15.4-2.3c0.2,2.4,0.3,4.8,0.5,7.2c-10.9-0.3-21.7-0.6-32.6-0.9c0,0.2,0,0.3,0,0.5
	c0.5,1.1,0.9,2.1,1.4,3.2c10.4-0.2,20.8-0.3,31.3-0.5c0,1.8,0,3.6,0,5.4c-8.6-0.3-17.2-0.6-25.8-0.9c0.5,1.2,0.9,2.4,1.4,3.6
	c17.5-0.2,35-0.3,52.6-0.5c0,0.2,0,0.3,0,0.5c-12.1,4.6-37.3,4.4-50.3,0.5c0,4.7,0,9.4,0,14c0.6,0.3,1.2,0.6,1.8,0.9
	c4.9,1.9,8.1-0.9,10.4-2.3c11.2,0,22.4,0,33.5,0c0.3,0.8,0.6,1.5,0.9,2.3c2.5,1.1,8.2-0.2,9.5-0.9c2.7-2.2,0.2-6.8,3.6-8.6
	c-1.2-3.6-5-4-7.7-5.9c-0.3,0-0.6,0-0.9,0c3.6-0.2,7.2-0.3,10.9-0.5c0-0.6,0-1.2,0-1.8c-2.6-1.7-5.1-3.3-7.7-5
	c-0.2-0.3-0.3-0.6-0.5-0.9c5,0,10,0,15,0C573.5,82.5,573.7,82.2,573.8,81.9z M550.3,101.8c-11.2,0-22.4,0-33.5,0c0-1.8,0-3.6,0-5.4
	c11.2,0,22.4,0,33.5,0C550.3,98.2,550.3,100,550.3,101.8z M551.2,88.3c-4.2,0-8.5,0-12.7,0c0-1.8,0-3.6,0-5.4c6,0,12.1,0,18.1,0
	C554.8,84.6,553,86.4,551.2,88.3z"/>
<path class="st5" d="M561.1,110.5c-3.2,0.2-6.3,0.3-9.5,0.5c2.7,2.1,6.5,3.2,7.7,6.8c-0.2,0.2-0.3,0.3-0.5,0.5c-8.8,0-17.5,0-26.3,0
	c-3.6,1.3-7,4.5-11.3,5.9c0,0.2,0,0.3,0,0.5c10.4-0.2,20.8-0.3,31.3-0.5c-0.2-0.3-0.3-0.6-0.5-0.9c-1.7-1.1-3.3-2.1-5-3.2
	c0-0.2,0-0.3,0-0.5c8.9-0.3,14.1,1.1,18.1,5.4c0.1,3.7-0.5,4.8-1.8,6.8c-0.9,0.2-1.8,0.3-2.7,0.5c-2.7-1.9-3.9-4.3-6.3-6.3
	c-5.1,1.2-10.3,2.4-15.4,3.6c0,2.3,0,4.5,0,6.8c3.5,0.1,7.7,0.2,10-0.9c1.1-2.5,3.3-4.9,6.3-5.4c2.9,2.5,6.6,4.3,8.6,7.7
	c-0.2,0.3-0.3,0.6-0.5,0.9c-8.2,0-16.3,0-24.5,0c0,2.4,0,4.8,0,7.2c6.6,0.2,13.3,0.3,19.9,0.5c2.3-2.4,4.5-4.8,6.8-7.2
	c3.9,1.4,7.7,5.1,10,8.2c0,0.5,0,0.9,0,1.4c-26.1,0-52.3,0-78.4,0c-1.1,0.2-2.1,0.3-3.2,0.5c-0.6-1.2-1.2-2.4-1.8-3.6
	c10.2,1.3,22.9,0.9,34.4,0.9c0-2.6,0-5.1,0-7.7c-8.6,0.2-17.2,0.3-25.8,0.5c-0.5-0.9-0.9-1.8-1.4-2.7c0-0.2,0-0.3,0-0.5
	c9.1,0.3,18.1,0.6,27.2,0.9c0-2,0-3.9,0-5.9c-0.2,0-0.3,0-0.5,0c-4.7,1.1-16.2,0-18.1,4.1c-3.3-1.3-4.4-8-4.5-12.2
	c4.4,0.5,8.8,0.9,13.1,1.4c0.8-2,1.5-3.9,2.3-5.9c-4.1,0.2-8.2,0.3-12.2,0.5c-0.5-0.9-0.9-1.8-1.4-2.7c0-0.2,0-0.3,0-0.5
	c13,0.2,26,0.3,39,0.5c1.8-1.5,3.6-3,5.4-4.5c0-0.3,0-0.6,0-0.9c-15.4,0-30.8,0-46.2,0c0.2,5-0.8,7.3-2.7,10c-3.2,1-5.1,1.2-8.6,0.5
	c-0.6-0.8-1.2-1.5-1.8-2.3c0-0.9,0-1.8,0-2.7c0.2-0.4,10.8-12.2,10.9-12.2c0.3,0.2,0.6,0.3,0.9,0.5c0.3,1.5,0.6,3,0.9,4.5
	c17.8,0,35.6,0,53.5,0c5.5-0.1,6.9-5.8,11.3-4.5c2.6,2.1,5.1,4.2,7.7,6.3c0,0.6,0,1.2,0,1.8c-5.4,0.7-9.7,4.9-12.7,8.2
	c-0.8-0.2-1.5-0.3-2.3-0.5C560.8,116.8,561,113.6,561.1,110.5z"/>
<path class="st5" d="M948.9,111.4c8.8,0.6,17.2,6.4,14.5,15.9c-3,1.6-5.8,2-9.5,0.9C953,125.4,948.9,111.4,948.9,111.4z"/>
<path class="st5" d="M474.1,177.5c4.8,2.8,14.2,19.1,17.2,24.5c-1.8,0-3.6,0-5.4,0c-0.3-3-3.5-6.6-5.4-9.5c-3.3,0.2-6.6,0.3-10,0.5
	c0.8-1.2,1.5-2.4,2.3-3.6c1.8,0,3.6,0,5.4,0c-0.3-0.3-0.6-0.6-0.9-0.9c-0.9-1.4-1.8-2.7-2.7-4.1c-0.3,0.2-0.6,0.3-0.9,0.5
	c-2.3,5.4-10.7,11.7-10.4,17.2c-1.8,0-3.6,0-5.4,0c0.2-0.5,0.3-0.9,0.5-1.4C463.6,192.9,468.9,185.2,474.1,177.5z"/>
<path class="st5" d="M594.2,177.5c6.3,5.6,12.7,11.2,19,16.8c0.1-5.1,0.8-12.7-0.9-16.3c1.8,0,3.6,0,5.4,0c-2.5,5.5-1,17.7-0.9,24.9
	c-6.2-5.6-12.4-11.2-18.6-16.8c0.2,5.3,0.3,10.6,0.5,15.9c-1.7,0-3.3,0-5,0C593.9,193.8,594.1,185.7,594.2,177.5z"/>
<path class="st5" d="M919.9,177.5c6.3,5.6,12.7,11.2,19,16.8c0.1-5.1,0.8-12.7-0.9-16.3c1.8,0,3.6,0,5.4,0c-2.5,5.5-1,17.7-0.9,24.9
	c-6.2-5.6-12.4-11.2-18.6-16.8c0.2,5.3,0.3,10.6,0.5,15.9c-1.7,0-3.3,0-5,0C919.6,193.8,919.8,185.7,919.9,177.5z"/>
<path class="st5" d="M953.5,177.5c3.2,5.9,6.3,11.8,9.5,17.7c0.5-0.3,0.9-0.6,1.4-0.9c2.7-5.6,5.4-11.2,8.2-16.8
	c0.3,0.2,0.6,0.3,0.9,0.5c2.3,8,4.5,16,6.8,24c-1.7,0-3.3,0-5,0c1.3-3.9-2.2-10.4-3.2-15.4c-0.3,0.2-0.6,0.3-0.9,0.5
	c-2.6,5.3-5.1,10.6-7.7,15.9c-0.3-0.2-0.6-0.3-0.9-0.5c-2.7-5.1-5.4-10.3-8.2-15.4c-0.2,0-0.3,0-0.5,0c-0.8,4.8-4.1,11.2-2.7,15
	c-1.7,0-3.3,0-5,0c0-0.2,0-0.3,0-0.5C948.6,193.5,951.1,185.5,953.5,177.5z"/>
<path class="st5" d="M1013.7,177.5c6.3,5.6,12.7,11.2,19,16.8c0.1-5.1,0.8-12.7-0.9-16.3c1.8,0,3.6,0,5.4,0
	c-2.5,5.5-1,17.7-0.9,24.9c-6.2-5.6-12.4-11.2-18.6-16.8c0.2,5.3,0.3,10.6,0.5,15.9c-1.7,0-3.3,0-5,0
	C1013.4,193.8,1013.6,185.7,1013.7,177.5z"/>
<path class="st5" d="M445.6,181.6c-0.1,6.1-1.2,15.9,0.9,20.4c-1.8,0-3.6,0-5.4,0c0.2-6.8,0.3-13.6,0.5-20.4
	c-4.1,0.2-8.2,0.3-12.2,0.5c0.3-0.5,0.6-0.9,0.9-1.4c0.5-0.9,0.9-1.8,1.4-2.7c8.9,0.2,17.8,0.3,26.7,0.5c-0.8,1.2-1.5,2.4-2.3,3.6
	C452.5,181.9,449.1,181.7,445.6,181.6z"/>
<path class="st5" d="M493.6,178c1.8,0,3.6,0,5.4,0c-2,4.2-2,19.8,0,24c-1.8,0-3.6,0-5.4,0C493.6,194,493.6,186,493.6,178z"/>
<path class="st5" d="M513.1,178c5.9,0.2,11.8,0.3,17.7,0.5c-0.8,1.2-1.5,2.4-2.3,3.6c-9.1-2.9-24.4-0.7-20.8,10.9
	c2,6.5,15.7,7.8,23.6,5c-0.9,1.4-1.8,2.7-2.7,4.1c-5.9-0.2-11.8-0.3-17.7-0.5C496.8,196.4,504.3,182.9,513.1,178z"/>
<path class="st5" d="M534.4,178c2,0,3.9,0,5.9,0c-2.1,4.4-1.9,18.8-0.5,24c-1.7,0-3.3,0-5,0C536.3,196.8,536.5,182.4,534.4,178z"/>
<path class="st5" d="M553.9,190.6c-4.7,0.2-9.4,0.3-14,0.5c0.6-1.4,1.2-2.7,1.8-4.1c4.1,0,8.2,0,12.2,0c-0.2-3-0.3-6-0.5-9.1
	c1.8,0,3.6,0,5.4,0c0,8,0,16,0,24c-1.8,0-3.6,0-5.4,0C553.6,198.2,553.7,194.4,553.9,190.6z"/>
<path class="st5" d="M564.3,178c1.8,0,3.6,0,5.4,0c0,0.2,0,0.3,0,0.5c0,6.5,0,13,0,19.5c0.5,0.2,0.9,0.3,1.4,0.5
	c3.6,1.9,9.5,0.7,12.2-0.9c1-4.7,1.4-15.5-0.5-19.5c1.8,0,3.6,0,5.4,0c-1.8,7.5,0.8,17.8-2.7,23.1C555.4,209.4,570.7,193,564.3,178z
	"/>
<path class="st5" d="M642.2,198.8c0-2.7,0-5.4,0-8.2c-3.5,0.2-6.9,0.3-10.4,0.5c0.9-1.4,1.8-2.7,2.7-4.1c3.9,0,7.9,0,11.8,0
	c0.2,5,0.3,10,0.5,15c-12,0.5-23.1,0.7-25.4-8.6c-3.6-15.1,11.6-15.9,24.5-15.4c-0.8,1.4-1.5,2.7-2.3,4.1
	c-8.5-1.9-20.1-0.4-18.1,9.5C626.9,198.5,633.4,199.3,642.2,198.8z"/>
<path class="st5" d="M672.6,178c5.9,0,11.8,0,17.7,0c-0.8,1.4-1.5,2.7-2.3,4.1c-7.1-2.1-16.2-0.1-19.9,2.7
	c-4.4,13.5,9.5,17.2,22.7,13.1c-0.8,1.4-1.5,2.7-2.3,4.1c-5.9,0.2-15.1,1.1-19.5-0.9C656,195.2,664.1,182.2,672.6,178z"/>
<path class="st5" d="M693.9,178c1.8,0,3.6,0,5.4,0c0,0.2,0,0.3,0,0.5c0,7.9,0,15.7,0,23.6c-1.8,0-3.6,0-5.4,0
	C695.9,197.7,695.9,182.2,693.9,178z"/>
<path class="st5" d="M719.2,181.6c0.2,6.8,0.3,13.6,0.5,20.4c-1.8,0-3.6,0-5.4,0c0.2-6.8,0.3-13.6,0.5-20.4
	c-4.1,0.2-8.2,0.3-12.2,0.5c0.9-1.4,1.8-2.7,2.7-4.1c10.7,0,21.4,0,32.2,0c-0.2,1.5,5.4,10.6,7.7,10c1.8-0.5,6.7-8.6,6.3-10
	c2,0.2,3.9,0.3,5.9,0.5c-0.8,0.8-1.5,1.5-2.3,2.3c-2.7,3.5-5.4,6.9-8.2,10.4c0.2,3.6,0.3,7.2,0.5,10.9c-1.8,0-3.6,0-5.4,0
	c1.1-2.3,1-6.8,0.9-10.4c-3.9-4.2-7.9-8.5-11.8-12.7c-0.5,1.1-0.9,2.1-1.4,3.2C726.2,181.9,722.7,181.7,719.2,181.6z"/>
<path class="st5" d="M790.4,198.8c0-2.7,0-5.4,0-8.2c-3.3,0.2-6.6,0.3-10,0.5c0.9-1.4,1.8-2.7,2.7-4.1c3.8,0,7.6,0,11.3,0
	c-0.1,4.7-0.6,11.7,0.9,15c-11.8,0.5-23,0.7-25.4-8.2c-3.4-12.7,12-20.7,24-15.4c-0.6,1.2-1.2,2.4-1.8,3.6
	c-4.3-0.9-10.8-0.5-14.5,0.5c-3.4,4.3-4.1,7.8-1.8,13.6C779.8,198.2,783.7,198.9,790.4,198.8z"/>
<path class="st5" d="M829.8,178c2,0,3.9,0,5.9,0c-0.7,4.1,5.7,14.4,8.6,17.2c0-0.3,0-0.6,0-0.9c3.2-3.2,8.6-12.1,8.6-16.3
	c1.8,0,3.6,0,5.4,0c-4.7,8.3-9.4,16.6-14,24.9c-0.3-0.2-0.6-0.3-0.9-0.5C838.8,194.3,834.3,186.1,829.8,178z"/>
<path class="st5" d="M868.7,178c5.9,0,11.8,0,17.7,0c-0.8,1.4-1.5,2.7-2.3,4.1c-9.1-2.9-23.4-0.8-21.3,9.5c1.6,7.8,15.1,9.5,24,6.3
	c-0.8,1.4-1.5,2.7-2.3,4.1c-5.7,0.2-15.3,1.2-19.5-0.9C852.4,194.7,860.1,182.4,868.7,178z"/>
<path class="st5" d="M915.9,202c-1.5,0-3,0-4.5,0c2.4-7.3-4.9-13.4-11.8-11.3c2.7-2.3,5.4-4.5,8.2-6.8c-0.6-1.7,0-0.9-1.4-1.8
	c-3.8-0.2-7.6-0.3-11.3-0.5c0.2,6.8,0.3,13.6,0.5,20.4c-1.8,0-3.6,0-5.4,0c0-8,0-16,0-24c6.5-0.1,14.4-0.4,19.5,0.9
	c0.9,1.4,1.8,2.7,2.7,4.1c-0.2,0.3-0.3,0.6-0.5,0.9c-1.8,1.2-3.6,2.4-5.4,3.6c0,0.2,0,0.3,0,0.5C913,188.9,916.2,193.9,915.9,202z"
	/>
<path class="st5" d="M992,178c5.9,0.2,11.8,0.3,17.7,0.5c-0.3,0.3-0.6,0.6-0.9,0.9c-0.5,0.9-0.9,1.8-1.4,2.7
	c-9.1-2.9-24.4-0.7-20.8,10.9c2,6.5,15.7,7.8,23.6,5c-0.9,1.4-1.8,2.7-2.7,4.1c-5.9-0.2-11.8-0.3-17.7-0.5
	C975.6,196.4,983.2,182.9,992,178z"/>
<path class="st5" d="M1055.9,181.6c-0.1,6.1-1.2,15.9,0.9,20.4c-1.8,0-3.6,0-5.4,0c0.2-6.8,0.3-13.6,0.5-20.4
	c-4.1,0.2-8.2,0.3-12.2,0.5c0.3-0.5,0.6-0.9,0.9-1.4c0.5-0.9,0.9-1.8,1.4-2.7c8.9,0.2,17.8,0.3,26.7,0.5c-0.6,1.2-1.2,2.4-1.8,3.6
	C1063.1,181.9,1059.5,181.7,1055.9,181.6z"/>
<path class="st5" d="M810.8,177.5c-23.7,11.1-3.1,33.6,13.1,22.7C836.8,191.5,826.6,176.7,810.8,177.5z M824.3,192.9
	c-3.1,9.1-14.5,6.2-19.9,1.8c-0.6-2.2-1.2-5.1-0.5-7.7c1.4-3.3,3.5-4.1,6.3-5.9c7.5-0.2,9.7,1.1,13.6,4.1
	C824.5,187.2,825.4,190.6,824.3,192.9z"/>
<path class="st5" d="M865.6,187c6,0,12.1,0,18.1,0c-0.3,0.6-0.6,1.2-0.9,1.8c-0.5,0.8-0.9,1.5-1.4,2.3c-5.9-0.2-11.8-0.3-17.7-0.5
	C864.4,189.4,865,188.2,865.6,187z"/>
<path class="st5" d="M988.8,187c6.2,0.2,12.4,0.3,18.6,0.5c-0.3,0.3-0.6,0.6-0.9,0.9c-0.5,1.1-0.9,2.1-1.4,3.2
	c-3.6-2-12.5-1-17.7-0.9c0-0.2,0-0.3,0-0.5C987.9,189.1,988.4,188.1,988.8,187z"/>
</svg>
